<?xml version="1.0" standalone="no"?>
<!DOCTYPE svg PUBLIC "-//W3C//DTD SVG 20010904//EN"
 "http://www.w3.org/TR/2001/REC-SVG-20010904/DTD/svg10.dtd">
<svg version="1.0" xmlns="http://www.w3.org/2000/svg"
 width="500.000000pt" height="500.000000pt" viewBox="0 0 500.000000 500.000000"
 preserveAspectRatio="xMidYMid meet">

<g transform="translate(0.000000,500.000000) scale(0.100000,-0.100000)"
fill="#000000" stroke="none">
<path d="M2960 4471 c0 -18 -27 -37 -38 -26 -3 3 0 5 6 5 7 0 12 7 12 15 0 19
-20 19 -45 1 -13 -9 -25 -11 -36 -5 -14 7 -19 3 -28 -21 -5 -17 -17 -30 -27
-30 -16 0 -16 -3 2 -61 3 -9 -1 -23 -10 -31 -8 -9 -12 -18 -9 -22 4 -3 -6 -6
-20 -6 -15 0 -27 -4 -27 -10 0 -5 -4 -10 -10 -10 -5 0 -10 6 -10 14 0 11 -12
14 -45 13 -28 -1 -45 -7 -45 -14 0 -7 5 -13 11 -13 6 0 9 -7 5 -15 -3 -9 0
-15 9 -15 8 0 15 -7 15 -15 0 -19 -9 -19 -32 2 -11 9 -18 11 -18 5 0 -7 -9
-12 -20 -12 -11 0 -20 5 -20 10 0 6 -7 10 -15 10 -8 0 -15 -7 -15 -15 0 -8 -4
-15 -10 -15 -5 0 -10 7 -10 15 0 27 -16 16 -30 -20 -8 -19 -17 -35 -22 -35
-12 0 -10 38 4 60 11 16 9 22 -7 35 -11 8 -29 13 -41 10 -12 -3 -27 3 -37 15
-9 11 -23 17 -31 14 -8 -3 -17 -1 -21 5 -3 6 -18 11 -33 11 -19 0 -23 3 -13 9
19 12 -3 24 -30 16 -11 -4 -26 -1 -34 5 -10 8 -15 9 -15 2 0 -6 -12 -23 -26
-37 -25 -25 -26 -25 -31 -6 -5 19 -6 20 -28 3 -13 -9 -21 -20 -18 -24 11 -19
-16 -6 -30 15 -12 17 -16 18 -16 6 -1 -12 -14 -18 -48 -22 -27 -3 -50 -11 -55
-21 -12 -22 -35 -20 -41 4 -5 20 -25 25 -74 21 -13 -1 -32 3 -43 9 -16 9 -20
8 -20 -5 0 -8 -4 -15 -10 -15 -5 0 -10 5 -10 10 0 18 -20 10 -57 -24 -30 -27
-45 -33 -73 -31 -37 3 -90 -18 -90 -36 0 -6 7 -9 15 -5 8 3 15 1 15 -5 0 -16
-27 -21 -51 -9 -19 11 -21 10 -16 -4 8 -21 -36 -50 -64 -43 -17 5 -19 3 -10
-6 9 -9 7 -15 -9 -27 -11 -8 -25 -38 -32 -67 -7 -29 -18 -53 -24 -53 -5 0 -16
-15 -24 -34 -11 -30 -15 -33 -32 -23 -10 7 -18 17 -18 24 0 8 -7 10 -17 6 -11
-4 -13 -8 -5 -11 18 -6 4 -22 -19 -22 -12 0 -19 7 -19 20 0 13 -5 18 -15 14
-9 -4 -15 -1 -15 7 0 8 -11 1 -24 -15 -22 -28 -24 -29 -34 -10 -6 10 -12 14
-12 9 0 -11 -23 -44 -52 -75 -9 -10 -14 -21 -10 -24 12 -13 -34 -4 -52 9 -17
13 -21 13 -34 -6 -9 -12 -20 -18 -32 -14 -11 3 -20 0 -24 -10 -3 -8 -1 -15 4
-15 6 0 10 -6 10 -13 0 -14 -9 -24 -66 -76 -16 -15 -28 -33 -26 -39 2 -8 -13
-12 -47 -12 -38 0 -51 -4 -51 -15 0 -8 -6 -12 -14 -9 -7 3 -16 -2 -19 -10 -4
-9 -13 -16 -21 -16 -8 0 -17 -6 -19 -12 -4 -10 -8 -9 -16 2 -6 9 -11 10 -11 3
0 -6 7 -18 15 -27 20 -19 19 -26 -4 -26 -10 0 -21 -7 -25 -15 -3 -9 0 -15 9
-15 7 0 17 -5 21 -11 5 -9 -1 -10 -20 -5 -26 6 -36 -6 -15 -19 6 -4 8 -14 5
-22 -4 -9 1 -17 14 -20 24 -6 26 -22 4 -38 -25 -18 -11 -60 26 -75 16 -7 30
-14 30 -17 0 -15 -23 -43 -35 -43 -8 0 -18 -8 -24 -17 -7 -14 -2 -26 20 -52
l29 -35 23 22 c32 30 51 29 43 -3 -7 -27 11 -36 20 -10 4 8 15 15 25 15 20 0
26 -15 9 -25 -14 -9 14 -35 38 -35 12 0 22 9 26 23 6 21 7 20 21 -12 14 -31
14 -36 -1 -53 -10 -10 -24 -18 -33 -18 -14 1 -13 2 1 11 30 17 20 24 -27 21
-25 -2 -45 -8 -45 -12 0 -4 -7 -11 -16 -14 -12 -4 -15 -2 -10 9 3 8 1 15 -4
15 -6 0 -10 -9 -10 -20 0 -11 -5 -20 -10 -20 -6 0 -8 11 -4 26 5 19 3 25 -4
20 -16 -9 -89 11 -95 27 -3 7 -6 6 -6 -4 -1 -9 -8 -20 -17 -23 -22 -8 -26 -8
-19 3 3 5 1 12 -5 16 -5 3 -10 1 -10 -5 0 -6 -8 -10 -17 -8 -27 4 -43 -10 -43
-37 0 -13 -5 -27 -10 -30 -6 -4 -9 -14 -8 -23 2 -11 -5 -18 -20 -20 -12 -2
-22 -8 -22 -13 0 -6 -4 -7 -10 -4 -5 3 -10 1 -10 -4 0 -6 7 -11 15 -11 8 0 15
-7 15 -15 0 -8 -9 -15 -20 -15 -11 0 -20 5 -20 11 0 5 -5 7 -10 4 -7 -4 -6
-13 1 -27 8 -16 8 -22 -2 -29 -20 -12 -24 -69 -5 -69 9 0 16 -4 16 -10 0 -5
-9 -10 -21 -10 -18 0 -19 -2 -5 -15 8 -8 19 -15 25 -15 15 0 14 -17 -1 -24
-10 -5 -10 -7 0 -12 6 -3 10 -10 6 -15 -3 -5 -1 -9 4 -9 5 0 9 -13 9 -29 0
-24 -3 -27 -14 -16 -7 8 -13 22 -14 32 0 10 -3 13 -6 5 -2 -6 -9 -10 -14 -6
-12 7 -42 -23 -34 -36 3 -5 -1 -10 -9 -10 -9 0 -16 -5 -16 -12 0 -6 -3 -8 -6
-5 -4 4 -1 14 6 23 11 12 11 17 1 23 -17 11 -102 1 -120 -13 -11 -8 -15 -8
-18 2 -6 17 -31 15 -49 -3 -9 -8 -29 -15 -46 -15 -26 0 -29 -2 -18 -15 10 -12
10 -15 -1 -15 -8 0 -20 -9 -27 -20 -7 -11 -8 -20 -3 -20 5 0 11 6 14 13 2 6 7
9 11 6 14 -13 -7 -37 -36 -43 -28 -6 -30 -8 -24 -38 3 -18 13 -38 21 -44 15
-11 11 -44 -5 -44 -4 0 -10 -13 -12 -30 -3 -16 -1 -30 3 -30 5 0 6 -7 3 -15
-7 -18 12 -20 20 -2 3 6 3 -5 0 -25 -7 -42 6 -50 38 -21 16 15 18 15 18 0 0
-9 -8 -21 -17 -26 -10 -6 -12 -11 -6 -11 7 0 18 9 25 19 6 10 17 17 23 14 7
-2 15 3 18 11 4 10 1 13 -9 9 -15 -6 -69 25 -60 34 3 4 18 0 33 -8 20 -11 27
-11 30 -1 3 6 14 12 26 11 12 0 16 -3 10 -6 -22 -8 -14 -23 13 -23 14 0 23 -4
19 -10 -3 -6 -1 -10 4 -10 6 0 11 11 11 25 0 29 11 31 44 10 22 -15 24 -15 22
2 0 10 6 18 14 18 8 0 14 -8 14 -17 -1 -10 4 -14 12 -11 10 4 14 -3 14 -22 0
-21 4 -26 16 -21 9 3 22 6 30 6 8 0 14 10 14 25 0 14 2 25 5 25 14 0 55 -25
55 -34 0 -26 -13 -55 -27 -60 -21 -8 -39 4 -22 15 10 6 10 9 2 9 -6 0 -14 -4
-17 -9 -3 -5 -27 -6 -52 -3 -46 5 -47 5 -40 -21 4 -16 1 -27 -7 -30 -8 -3 -6
-7 7 -12 13 -6 21 -3 28 9 5 9 14 14 19 10 6 -4 2 -14 -11 -26 -12 -11 -19
-26 -16 -34 3 -7 1 -16 -4 -19 -13 -8 -13 -25 0 -25 6 0 10 7 10 15 0 8 5 15
10 15 6 0 10 -5 10 -11 0 -12 58 -3 77 13 9 7 15 5 19 -6 5 -13 9 -14 20 -5
10 8 18 8 27 1 8 -7 18 -7 27 -2 23 15 28 12 25 -15 -3 -29 15 -34 22 -6 3 10
14 23 26 29 21 10 21 11 -5 11 -27 1 -41 21 -15 21 7 0 17 10 22 22 6 12 16
24 24 26 8 3 11 0 8 -5 -7 -11 14 -63 25 -63 4 0 5 6 2 14 -4 9 2 16 17 18 21
3 22 4 6 20 -9 9 -22 18 -29 21 -10 4 -10 7 0 18 11 12 15 11 23 -3 6 -10 16
-18 24 -18 8 0 12 -9 10 -25 -2 -19 2 -25 16 -25 11 0 19 -5 19 -11 0 -6 8 -8
18 -5 9 3 23 2 30 -3 11 -7 11 -11 -2 -24 -22 -22 -20 -37 5 -37 11 0 18 4 15
9 -7 11 18 33 27 24 4 -3 7 -15 7 -26 0 -16 2 -17 15 -7 9 7 19 10 23 6 4 -4
-1 -13 -11 -20 -18 -14 -23 -51 -9 -60 5 -3 27 -8 49 -12 38 -6 40 -5 46 22
10 45 24 61 39 46 6 -6 21 -12 33 -12 11 0 34 -7 50 -16 17 -8 55 -20 85 -26
30 -5 69 -18 85 -28 17 -10 49 -21 72 -25 23 -4 53 -15 67 -26 13 -10 37 -19
53 -20 15 0 37 -4 48 -8 11 -5 28 -5 37 0 9 5 36 11 59 13 24 2 45 9 47 15 5
15 56 41 82 41 11 0 20 -7 20 -15 0 -9 10 -15 26 -15 16 0 24 5 21 13 -2 6
-11 11 -21 9 -9 -2 -16 4 -16 14 0 10 5 14 14 11 8 -3 16 -2 18 3 4 11 58 15
86 6 25 -8 30 -26 7 -26 -8 0 -15 -4 -15 -8 0 -17 13 -21 32 -9 16 10 22 9 32
-5 18 -24 53 -23 66 2 9 16 8 22 -5 26 -8 3 -15 13 -15 21 0 12 8 14 38 9 82
-14 92 -18 92 -33 0 -10 6 -13 16 -9 10 4 21 -4 32 -24 12 -21 29 -34 57 -41
107 -29 224 -110 257 -177 22 -45 23 -58 25 -299 l2 -253 -182 0 c-196 0 -501
-14 -687 -30 -410 -37 -104 -83 655 -98 603 -13 1179 1 1448 33 127 16 163 27
131 39 -64 25 -520 54 -934 59 l-165 2 -8 70 c-6 42 -15 73 -24 80 -12 9 -13
20 -8 46 5 19 8 77 9 129 1 86 3 99 26 127 14 16 39 40 56 52 17 12 61 50 97
84 54 50 68 71 78 109 6 26 18 49 26 52 10 4 12 13 8 27 -7 23 12 69 28 69 5
0 16 -8 24 -17 13 -17 13 -17 11 2 -4 27 28 23 109 -15 78 -36 101 -31 201 45
40 30 78 55 83 55 5 0 17 4 27 9 88 46 161 58 197 35 27 -18 28 -18 43 4 8 12
21 22 28 22 8 0 14 4 14 8 0 5 19 14 43 20 23 6 65 17 92 25 59 17 75 9 75
-37 0 -31 0 -31 48 -28 l49 4 17 54 c10 33 22 54 29 51 7 -2 11 -12 11 -21 -1
-10 6 -16 17 -16 21 0 25 20 8 37 -9 9 -8 16 5 28 9 9 16 13 16 8 0 -4 11 -13
25 -20 14 -6 25 -7 25 -2 0 5 -4 9 -10 9 -5 0 -10 5 -10 10 0 6 7 10 15 10 14
0 19 12 16 33 0 4 6 7 14 7 9 0 18 7 21 15 8 20 34 19 34 0 0 -9 -11 -21 -25
-27 -30 -14 -33 -28 -5 -28 11 0 19 -3 19 -7 -4 -25 3 -24 16 1 8 15 12 32 9
37 -3 5 -1 9 5 9 6 0 17 -13 26 -30 9 -16 20 -30 25 -30 6 0 10 -5 10 -11 0
-7 -10 -9 -25 -7 -27 6 -34 -6 -10 -16 8 -3 15 -12 15 -20 0 -7 7 -17 16 -20
12 -5 15 -2 10 10 -5 13 -1 16 24 12 16 -3 30 -1 30 4 0 5 8 8 18 6 9 -1 23 1
30 6 8 5 18 2 25 -7 14 -17 77 -28 77 -13 0 5 6 1 14 -10 14 -17 15 -15 11 25
-3 37 -1 44 16 48 16 5 18 8 7 15 -10 7 -10 11 0 15 6 2 12 11 12 19 0 19 -49
30 -72 15 -10 -6 -18 -7 -18 -2 0 5 -7 11 -14 14 -10 4 -13 1 -9 -9 7 -19 -12
-18 -31 2 -25 24 -20 59 9 72 36 16 38 15 33 -12 -4 -19 0 -26 16 -30 36 -10
46 -7 46 15 0 15 5 19 15 15 11 -4 15 0 13 12 -2 10 3 17 12 17 8 0 14 -8 13
-18 -1 -13 3 -17 15 -12 45 19 52 18 52 -9 0 -14 5 -26 11 -26 5 0 7 4 4 10
-4 6 6 10 22 11 15 0 22 3 16 6 -15 5 -17 23 -4 23 5 0 17 -7 25 -15 12 -12
20 -13 35 -5 11 5 25 10 32 10 24 0 -7 -22 -43 -30 -29 -7 -31 -9 -11 -15 11
-4 23 -15 26 -26 3 -10 11 -19 18 -19 10 0 10 3 1 12 -7 7 -12 19 -12 27 0 12
3 11 18 -2 32 -29 45 -21 39 21 -3 20 -3 31 0 25 2 -7 9 -13 14 -13 4 0 6 7 3
15 -4 8 -2 15 3 15 12 0 9 41 -4 65 -9 16 -8 24 7 40 10 11 22 32 25 48 6 24
4 27 -19 27 -15 0 -30 8 -36 21 -15 28 -4 38 15 13 8 -11 15 -14 15 -6 0 6 -9
21 -20 32 -11 11 -20 23 -20 28 0 4 -13 11 -30 15 -16 4 -30 14 -30 22 0 17
-21 20 -36 5 -7 -7 -21 -5 -43 6 -18 9 -55 16 -87 15 -42 0 -54 3 -54 15 0 9
-5 12 -11 8 -6 -3 -15 0 -20 7 -6 10 -9 6 -9 -14 0 -16 -4 -26 -9 -23 -5 4
-12 0 -15 -6 -3 -7 -3 -3 0 10 3 12 1 22 -5 22 -6 0 -11 -5 -11 -12 0 -9 -3
-9 -11 -1 -7 7 -9 20 -5 30 5 13 9 14 15 5 6 -9 13 -8 30 7 13 12 18 22 11 26
-15 9 -12 28 4 22 8 -3 17 0 20 8 2 7 -2 16 -10 19 -9 3 -12 10 -9 16 4 6 11
8 16 5 17 -11 18 57 1 70 -10 8 -9 15 7 32 l20 21 -21 40 c-12 21 -34 44 -50
51 -15 7 -28 17 -28 23 0 7 5 6 14 -1 11 -9 15 -8 20 5 9 23 8 27 -8 21 -19
-8 -52 29 -34 37 10 5 10 7 1 12 -7 3 -13 12 -13 20 0 8 -10 14 -24 14 -14 0
-31 9 -40 21 -10 15 -21 20 -35 16 -26 -7 -35 7 -16 23 18 15 19 50 3 85 -10
22 -9 28 10 41 25 17 30 64 7 64 -23 0 -18 16 10 28 15 7 22 17 19 26 -3 8 -1
17 5 21 22 13 11 27 -15 21 -17 -5 -23 -3 -19 4 3 5 13 10 21 10 8 0 14 7 14
15 0 8 -9 15 -20 15 -25 0 -25 12 0 35 25 22 17 35 -21 35 -18 0 -29 5 -29 14
0 20 -40 25 -73 8 -26 -12 -30 -11 -42 5 -8 10 -17 37 -21 61 -5 32 -11 42
-25 42 -11 0 -19 7 -19 15 0 9 -9 15 -24 15 -14 0 -28 5 -32 11 -4 7 -20 8
-41 4 -37 -7 -73 1 -73 16 0 5 7 9 15 9 12 0 15 9 13 38 -3 34 -1 37 25 40 15
2 27 7 27 12 0 5 -7 7 -16 3 -13 -5 -15 -2 -9 15 4 16 2 22 -8 22 -9 0 -17 -6
-20 -12 -3 -10 -12 -9 -37 5 -43 23 -52 22 -85 -13 -23 -24 -31 -27 -48 -18
-17 9 -24 7 -39 -12 -24 -30 -30 -22 -18 21 15 51 13 70 -7 67 -13 -2 -19 5
-21 22 -2 14 -8 29 -13 34 -5 6 -9 18 -9 28 0 10 -4 18 -10 18 -5 0 -10 8 -10
18 -1 16 -1 16 -14 0 -20 -27 -36 -22 -36 12 0 31 -9 37 -27 19 -8 -8 -13 -8
-17 0 -9 14 -36 15 -36 1 0 -5 8 -6 18 -3 14 6 15 4 4 -9 -12 -15 -15 -14 -37
8 -14 14 -25 29 -25 34 0 6 -7 10 -15 10 -8 0 -15 -9 -15 -20 0 -23 -4 -24
-31 -10 -27 15 -48 1 -24 -16 11 -8 16 -21 12 -34 -3 -11 -1 -23 4 -26 14 -9
10 -27 -5 -21 -7 3 -19 0 -25 -6 -8 -8 -11 -7 -11 5 0 14 -5 15 -31 8 -16 -5
-37 -6 -45 -3 -15 5 -18 -5 -8 -31 3 -9 10 -13 15 -10 5 3 9 1 9 -5 0 -5 8
-11 17 -13 15 -3 15 -4 -1 -20 -19 -19 -50 -13 -42 8 8 21 -4 43 -20 37 -8 -3
-22 1 -30 8 -19 16 -42 18 -65 7 -11 -5 -22 -2 -29 7 -7 8 -18 15 -25 15 -6 0
-20 9 -30 20 -10 11 -24 20 -32 20 -7 0 -13 4 -13 8 0 13 23 32 38 32 11 0 12
-3 3 -14 -10 -12 -7 -14 21 -9 18 3 37 10 41 16 6 9 10 9 14 0 2 -7 20 -13 39
-13 33 0 45 -12 24 -25 -6 -4 -8 -11 -4 -16 4 -6 13 -4 25 7 11 9 28 15 42 12
25 -5 53 24 42 42 -3 5 2 13 11 18 21 12 8 35 -16 27 -12 -4 -19 1 -23 15 -3
13 0 20 10 20 8 0 12 4 9 9 -3 5 2 12 12 16 16 6 16 7 -2 17 -13 7 -25 7 -42
-3 -18 -9 -30 -10 -46 -2 -13 6 -32 14 -43 18 -17 6 -14 9 20 20 21 8 41 12
44 10 2 -3 -1 -5 -8 -5 -7 0 -9 -5 -5 -12 5 -8 11 -6 20 7 17 23 10 35 -17 28
-18 -5 -20 -3 -14 16 7 24 2 26 -26 10 -15 -8 -24 -7 -36 3 -14 11 -16 10 -11
-9 4 -13 2 -23 -4 -23 -6 0 -7 -11 -4 -25 4 -14 3 -25 -2 -25 -15 0 -30 22
-25 36 3 8 -1 14 -11 14 -10 0 -16 -8 -16 -21 0 -15 -4 -19 -16 -15 -9 3 -17
6 -19 6 -2 0 -1 8 2 19 3 12 -2 20 -16 24 -21 5 -25 -11 -6 -26 6 -5 1 -6 -10
-4 -11 2 -19 8 -18 14 1 6 -4 14 -12 17 -8 3 -15 1 -15 -4 0 -17 -18 -11 -23
8 -4 14 -6 14 -12 -5 -9 -28 -25 -21 -18 7 6 21 -11 28 -22 10 -5 -8 -11 -7
-21 1 -11 9 -14 8 -14 -2 0 -10 -3 -10 -12 -1 -19 19 -48 15 -48 -7z m35 -21
c3 -5 1 -10 -4 -10 -6 0 -11 5 -11 10 0 6 2 10 4 10 3 0 8 -4 11 -10z m53 -35
c-7 -8 -38 23 -38 38 0 6 10 2 22 -10 12 -13 19 -25 16 -28z m-158 15 c8 -5
12 -12 9 -15 -8 -8 -39 5 -39 16 0 11 11 11 30 -1z m308 -33 c2 -9 -2 -17 -8
-17 -6 0 -8 5 -5 10 3 6 1 10 -4 10 -6 0 -11 5 -11 11 0 17 25 4 28 -14z
m-182 -59 c3 -10 14 -18 25 -18 11 0 19 -7 19 -16 0 -10 -6 -14 -15 -10 -8 3
-15 1 -15 -4 0 -5 -7 -7 -14 -4 -12 5 -13 2 -4 -18 9 -19 18 -23 37 -20 20 3
23 2 15 -8 -8 -8 -24 -9 -55 -3 -34 7 -43 13 -41 27 2 11 -1 15 -7 11 -16 -9
-13 -32 5 -39 8 -3 12 -10 9 -16 -9 -15 -43 -12 -53 5 -7 14 -11 13 -34 -4
-15 -12 -33 -18 -46 -14 -27 7 -30 43 -4 43 12 0 13 3 5 8 -7 4 -10 17 -6 30
4 17 10 21 29 16 35 -9 87 15 81 37 -3 10 1 20 9 23 8 3 14 13 14 23 0 15 4
14 20 -7 11 -14 22 -33 26 -42z m84 39 c15 4 20 0 20 -16 0 -15 -6 -21 -24
-21 -19 0 -23 5 -23 28 0 15 2 22 4 16 2 -7 13 -10 23 -7z m215 -26 c3 -5 1
-12 -5 -16 -5 -3 -10 1 -10 9 0 18 6 21 15 7z m-395 -10 c0 -6 -4 -13 -10 -16
-5 -3 -10 1 -10 9 0 9 5 16 10 16 6 0 10 -4 10 -9z m230 -41 c0 -5 -4 -10 -9
-10 -6 0 -13 5 -16 10 -3 6 1 10 9 10 9 0 16 -4 16 -10z m50 -6 c0 -8 -5 -12
-10 -9 -6 4 -8 11 -5 16 9 14 15 11 15 -7z m-90 -8 c0 -7 9 -16 20 -19 28 -7
16 -32 -16 -33 -18 -2 -24 2 -20 12 3 8 1 14 -3 14 -5 0 -7 9 -4 20 6 23 23
27 23 6z m-1230 0 c0 -3 -4 -8 -10 -11 -5 -3 -10 -1 -10 4 0 6 5 11 10 11 6 0
10 -2 10 -4z m1540 -26 c0 -5 -4 -10 -10 -10 -5 0 -10 5 -10 10 0 6 5 10 10
10 6 0 10 -4 10 -10z m-1555 -29 c17 -7 17 -8 -8 -15 -33 -8 -56 2 -36 15 16
10 18 10 44 0z m506 -13 c0 -10 2 -10 6 0 13 31 63 -3 63 -44 0 -28 -3 -29
-34 -9 -21 14 -24 14 -29 1 -3 -8 -20 -22 -36 -31 -27 -13 -30 -13 -25 0 5 12
0 14 -25 9 -20 -4 -31 -3 -31 5 0 6 5 11 10 11 6 0 10 5 10 10 0 6 -7 10 -16
10 -8 0 -12 5 -8 11 4 8 9 8 17 0 6 -6 29 -10 52 -10 22 1 32 3 23 6 -21 5
-23 14 -6 31 16 16 28 15 29 0z m1209 2 c0 -5 -4 -10 -10 -10 -5 0 -10 5 -10
10 0 6 5 10 10 10 6 0 10 -4 10 -10z m-1515 -9 c-3 -5 6 -18 19 -29 19 -14 22
-22 13 -31 -8 -8 -5 -11 12 -11 12 0 19 -4 16 -10 -9 -15 -42 -12 -78 6 -21
12 -32 13 -35 5 -7 -21 -22 -11 -22 14 0 14 4 25 8 25 5 0 19 9 32 20 24 21
46 27 35 11z m-435 -5 c0 -11 -19 -15 -25 -6 -3 5 1 10 9 10 9 0 16 -2 16 -4z
m490 -6 c0 -5 -4 -10 -10 -10 -5 0 -10 5 -10 10 0 6 5 10 10 10 6 0 10 -4 10
-10z m580 0 c0 -5 -4 -10 -10 -10 -5 0 -10 5 -10 10 0 6 5 10 10 10 6 0 10 -4
10 -10z m-460 -12 c0 -19 -18 -43 -25 -36 -4 3 -2 16 5 27 12 24 20 27 20 9z
m350 -2 c0 -11 -19 -15 -25 -6 -3 5 1 10 9 10 9 0 16 -2 16 -4z m1040 -6 c0
-13 -32 -28 -47 -23 -22 8 -14 25 7 18 11 -4 20 -2 20 4 0 6 5 11 10 11 6 0
10 -4 10 -10z m-1872 -26 c15 -15 15 -17 -1 -29 -9 -7 -17 -17 -17 -24 0 -8
-6 -8 -20 1 -19 12 -27 48 -13 61 11 12 34 8 51 -9z m1162 6 c0 -5 -4 -10 -10
-10 -11 0 -41 -55 -35 -64 3 -3 0 -2 -6 2 -17 15 18 81 44 82 4 0 7 -4 7 -10z
m198 -18 c2 -7 -7 -16 -20 -21 -13 -5 -32 -18 -42 -30 -24 -26 -36 -27 -36 -2
0 10 9 21 20 24 13 3 20 14 20 30 0 23 3 24 27 18 15 -4 28 -12 31 -19z m382
19 c0 -5 -7 -12 -16 -15 -14 -5 -15 -4 -4 9 14 17 20 19 20 6z m-1950 -11 c0
-5 -5 -10 -11 -10 -5 0 -7 5 -4 10 3 6 8 10 11 10 2 0 4 -4 4 -10z m1233 -40
c-6 -6 -33 30 -33 44 0 6 9 0 20 -14 10 -14 16 -27 13 -30z m961 35 c4 -10 -1
-15 -14 -15 -11 0 -20 7 -20 15 0 8 6 15 14 15 8 0 16 -7 20 -15z m-1014 -5
c0 -5 -4 -10 -10 -10 -5 0 -10 5 -10 10 0 6 5 10 10 10 6 0 10 -4 10 -10z
m-275 -10 c3 -5 2 -10 -4 -10 -5 0 -13 5 -16 10 -3 6 -2 10 4 10 5 0 13 -4 16
-10z m1085 0 c0 -5 -4 -10 -9 -10 -6 0 -13 5 -16 10 -3 6 1 10 9 10 9 0 16 -4
16 -10z m-1503 -23 c-6 -17 -47 -30 -47 -15 0 5 9 12 20 15 11 3 20 10 20 16
0 6 3 8 6 4 4 -3 4 -12 1 -20z m1322 16 c-6 -40 1 -48 44 -47 24 1 58 9 75 18
40 20 53 21 24 0 -16 -11 -22 -25 -22 -50 0 -23 -4 -33 -11 -28 -6 3 -14 1
-18 -5 -6 -8 -17 -7 -44 4 -46 19 -52 19 -33 0 8 -8 19 -15 24 -15 11 0 3 -58
-9 -66 -20 -12 -8 -26 17 -20 23 6 24 5 14 -14 -13 -23 -19 -24 -43 -5 -13 9
-17 21 -13 37 3 13 3 17 0 11 -3 -7 -11 -13 -17 -13 -7 0 -18 -9 -25 -20 -11
-18 -10 -20 12 -20 23 0 66 -44 66 -68 0 -5 7 -13 16 -16 13 -5 15 -1 12 23
-3 22 -1 28 11 23 10 -4 12 -1 6 7 -5 10 -2 11 14 6 14 -4 21 -2 21 7 0 8 13
13 38 13 20 1 53 3 72 5 35 5 38 1 25 -32 -6 -15 -2 -16 29 -11 28 4 36 2 36
-9 0 -9 -10 -22 -21 -30 -18 -11 -20 -20 -14 -46 3 -18 13 -32 21 -32 8 0 14
-7 14 -16 0 -10 6 -14 15 -10 10 3 20 -5 29 -23 10 -19 26 -30 46 -35 18 -3
29 -10 25 -16 -3 -5 2 -11 12 -11 17 -1 17 -2 1 -6 -20 -5 -20 -5 -12 -27 3
-9 10 -13 15 -10 5 3 9 0 9 -5 0 -6 13 -11 29 -11 23 0 30 -5 34 -27 7 -37
-12 -63 -46 -63 -16 0 -26 -4 -22 -10 3 -5 17 -10 31 -10 13 0 24 5 24 10 0
21 21 9 31 -17 8 -22 7 -30 -6 -39 -12 -9 -13 -14 -5 -19 9 -6 9 -9 0 -15 -10
-6 -8 -26 9 -89 12 -45 20 -85 16 -90 -3 -5 3 -12 12 -14 13 -3 10 -5 -7 -6
-19 -1 -21 -4 -11 -10 12 -8 12 -12 -2 -26 -10 -9 -17 -20 -17 -24 0 -4 -9 -7
-20 -7 -11 0 -20 4 -20 9 0 4 -5 5 -10 2 -6 -4 -8 -11 -5 -16 7 -10 -10 -11
-42 -3 -13 4 -23 11 -23 16 0 6 7 8 14 5 10 -4 13 -1 10 7 -3 9 -20 12 -47 11
-23 -2 -48 2 -54 7 -9 7 -15 6 -19 -6 -3 -9 -17 -16 -30 -16 -27 0 -43 -25
-26 -42 16 -16 -22 -78 -47 -78 -6 0 -11 -4 -11 -8 0 -4 -15 -8 -34 -8 -26 0
-36 5 -40 20 -3 11 1 27 8 36 7 8 11 21 9 28 -3 6 1 12 7 12 7 0 10 8 7 20 -3
11 -1 20 4 20 4 0 6 7 3 15 -4 9 0 15 10 15 9 0 15 6 13 12 -1 7 13 19 31 27
18 8 35 24 38 35 7 28 91 71 109 56 9 -7 16 -6 25 5 10 12 9 15 -5 15 -9 0
-19 8 -22 19 -3 12 -11 17 -22 14 -12 -3 -20 2 -23 15 -3 12 -16 22 -29 24
-16 2 -24 10 -24 22 0 11 -6 21 -13 24 -6 2 -12 -1 -12 -7 0 -6 -12 -11 -26
-11 -28 0 -64 -33 -64 -57 0 -29 -25 -5 -28 26 -3 30 -1 32 19 26 14 -5 19 -4
15 4 -10 16 -41 14 -56 -4 -7 -9 -19 -14 -26 -11 -7 3 -16 -4 -19 -16 -5 -14
-10 -17 -18 -9 -18 18 -31 13 -16 -6 11 -13 11 -17 1 -20 -6 -3 -10 -9 -7 -13
3 -5 12 -7 20 -3 19 7 19 -11 0 -27 -11 -9 -21 -9 -45 1 -16 8 -30 20 -30 26
0 7 -7 13 -15 13 -9 0 -18 6 -21 14 -5 12 -9 12 -25 -2 -26 -22 -24 -36 6 -52
14 -7 25 -21 25 -30 0 -9 5 -21 12 -28 9 -9 8 -12 -8 -13 -10 0 -13 -3 -6 -6
6 -2 10 -9 7 -13 -13 -21 -82 33 -77 60 2 10 -6 15 -23 15 -21 0 -25 -5 -25
-27 0 -16 -11 -38 -25 -53 -29 -28 -45 -32 -45 -10 0 8 -9 15 -19 15 -16 0
-19 6 -17 34 3 33 2 35 -24 29 -28 -5 -56 17 -32 25 7 2 12 10 12 18 0 9 10
14 27 14 29 0 63 25 63 47 0 7 5 13 10 13 6 0 10 7 10 16 0 14 -3 14 -15 4
-13 -10 -19 -10 -33 4 -10 9 -27 16 -38 17 -17 0 -16 2 4 11 13 7 21 17 17 26
-3 7 -5 20 -5 28 0 8 -7 14 -16 14 -23 0 -11 24 13 28 17 2 22 -4 27 -33 6
-32 9 -34 22 -20 23 23 41 18 61 -15 9 -16 23 -30 31 -30 8 0 10 -5 6 -12 -4
-7 2 -5 13 5 11 9 27 17 36 17 10 0 14 5 11 15 -4 9 0 15 10 15 9 0 16 -4 16
-10 0 -5 7 -7 15 -4 8 4 15 1 15 -5 0 -6 -5 -11 -11 -11 -6 0 -9 -7 -5 -15 3
-8 1 -15 -4 -15 -6 0 -10 -5 -10 -11 0 -5 4 -7 10 -4 5 3 19 1 31 -6 15 -8 19
-8 15 0 -4 6 -2 11 4 11 6 0 8 5 3 13 -4 6 -9 20 -10 31 -3 14 1 17 17 13 25
-6 70 13 70 31 0 9 7 11 22 6 20 -6 21 -5 10 8 -10 13 -10 17 3 22 8 3 15 0
15 -7 0 -9 11 -12 35 -9 32 4 34 6 28 33 -4 19 -1 29 7 29 7 0 10 -7 6 -15 -3
-10 3 -17 19 -21 32 -8 47 3 39 29 -6 19 -5 20 10 8 14 -12 16 -11 16 6 0 28
-9 34 -32 22 -27 -15 -33 -5 -18 31 15 37 11 43 -23 35 -17 -5 -24 -12 -20
-21 7 -18 -8 -18 -33 0 -13 10 -23 11 -31 4 -10 -8 -13 -6 -13 5 0 24 -28 29
-41 6 -8 -16 -13 -18 -25 -8 -11 9 -14 8 -14 -5 0 -21 -43 -22 -60 -1 -19 23
-43 19 -35 -6 6 -18 4 -19 -12 -10 -11 5 -29 8 -40 5 -13 -4 -22 0 -26 10 -5
12 0 16 21 17 15 0 21 3 15 6 -10 3 -10 10 -1 26 8 16 8 22 -1 25 -6 2 -9 8
-5 13 3 5 -11 9 -30 9 -29 0 -36 4 -36 20 0 18 -7 20 -53 20 -48 0 -55 3 -66
27 -9 20 -9 28 0 33 18 12 -6 22 -36 14 -15 -4 -25 -2 -25 5 0 6 6 11 13 12
10 0 10 2 0 6 -7 2 -13 9 -13 15 0 6 7 8 15 4 8 -3 15 -1 15 4 0 6 11 10 25
10 29 0 34 -16 8 -23 -11 -3 -8 -5 7 -4 14 0 45 -12 70 -26 52 -31 60 -33 60
-11 0 8 4 13 10 9 5 -3 7 -12 3 -20 -3 -11 2 -15 18 -15 19 0 21 -2 9 -10 -13
-8 -12 -10 3 -10 12 0 16 -6 14 -22 -2 -13 -2 -17 0 -10 3 8 13 12 23 9 32 -8
20 41 -12 52 -32 12 -37 41 -8 48 11 3 20 14 20 24 0 11 5 19 11 19 6 0 9 7 5
15 -3 8 -1 15 4 15 6 0 10 5 10 12 0 6 -7 4 -18 -5 -22 -20 -39 -22 -45 -4 -6
18 -47 -21 -47 -46 0 -15 -5 -18 -22 -14 -12 4 -28 1 -35 -5 -21 -17 -24 -4
-8 35 18 43 19 50 5 42 -16 -10 -63 42 -56 60 3 8 1 15 -4 15 -6 0 -10 7 -10
15 0 8 9 15 20 15 13 0 20 7 20 20 0 18 3 19 20 10 11 -6 20 -17 20 -25 0 -8
3 -14 8 -14 22 4 42 -3 42 -13 0 -9 15 -12 49 -10 58 4 103 40 82 66 -10 11
-9 15 6 19 10 3 19 5 21 6 1 0 1 -2 1 -6z m27 -20 c-10 -10 -19 5 -10 18 6 11
8 11 12 0 2 -7 1 -15 -2 -18z m414 12 c0 -10 -10 -15 -26 -15 -22 0 -25 2 -14
15 7 8 19 15 26 15 8 0 14 -7 14 -15z m-950 -6 c0 -17 -28 -40 -35 -29 -3 5
-1 10 4 10 6 0 11 7 11 15 0 8 5 15 10 15 6 0 10 -5 10 -11z m-1163 -26 c-3
-3 -11 -2 -17 2 -9 6 -9 10 1 16 14 8 27 -7 16 -18z m413 17 c0 -5 -5 -10 -11
-10 -5 0 -7 5 -4 10 3 6 8 10 11 10 2 0 4 -4 4 -10z m460 -10 c0 -5 -5 -10
-11 -10 -5 0 -7 5 -4 10 3 6 8 10 11 10 2 0 4 -4 4 -10z m200 -15 c-7 -9 -15
-13 -17 -11 -7 7 7 26 19 26 6 0 6 -6 -2 -15z m-965 -5 c-3 -5 -10 -10 -16
-10 -5 0 -9 5 -9 10 0 6 7 10 16 10 8 0 12 -4 9 -10z m80 -10 c3 -5 2 -10 -4
-10 -5 0 -13 5 -16 10 -3 6 -2 10 4 10 5 0 13 -4 16 -10z m325 0 c0 -5 -4 -10
-9 -10 -6 0 -13 5 -16 10 -3 6 1 10 9 10 9 0 16 -4 16 -10z m600 0 c0 -5 -4
-10 -10 -10 -5 0 -10 5 -10 10 0 6 5 10 10 10 6 0 10 -4 10 -10z m738 -8 c2
-7 -2 -10 -12 -6 -10 4 -16 1 -16 -7 0 -10 -3 -10 -11 -2 -6 6 -8 16 -4 23 9
14 37 9 43 -8z m-1432 -17 c-3 -9 0 -15 9 -15 21 0 19 -16 -2 -24 -11 -5 -22
-1 -30 10 -19 26 -16 44 8 44 15 0 19 -5 15 -15z m274 5 c0 -5 -4 -10 -10 -10
-5 0 -10 5 -10 10 0 6 5 10 10 10 6 0 10 -4 10 -10z m516 -17 c-10 -10 -19 5
-10 18 6 11 8 11 12 0 2 -7 1 -15 -2 -18z m716 3 c-2 -9 2 -16 8 -16 5 0 10
-5 10 -11 0 -8 -4 -9 -13 0 -8 6 -17 8 -21 4 -12 -13 -26 20 -14 34 14 18 34
11 30 -11z m-2019 -5 c2 -10 0 -25 -5 -32 -8 -11 -9 -10 -4 4 4 12 0 17 -14
17 -27 0 -50 -27 -49 -58 2 -24 2 -24 6 -4 6 32 23 27 23 -7 0 -27 -3 -29 -42
-33 -49 -5 -59 -1 -38 16 14 11 29 33 54 82 6 11 16 19 23 17 6 -2 14 1 18 6
10 17 22 13 28 -8z m57 10 c0 -12 -20 -25 -27 -18 -7 7 6 27 18 27 5 0 9 -4 9
-9z m357 -8 c5 -15 -28 -26 -41 -13 -8 8 -7 14 4 20 17 11 32 8 37 -7z m957 1
c4 -9 4 -19 2 -21 -8 -8 -26 8 -26 23 0 19 16 18 24 -2z m-594 -24 c0 -12 -33
-5 -38 8 -2 6 5 8 17 5 12 -3 21 -9 21 -13z m120 10 c0 -5 -4 -10 -10 -10 -5
0 -10 5 -10 10 0 6 5 10 10 10 6 0 10 -4 10 -10z m540 0 c0 -5 -2 -10 -4 -10
-3 0 -8 5 -11 10 -3 6 -1 10 4 10 6 0 11 -4 11 -10z m49 -30 c0 -10 -3 -8 -9
5 -12 27 -12 43 0 25 5 -8 9 -22 9 -30z m631 30 c0 -5 -2 -10 -4 -10 -3 0 -8
5 -11 10 -3 6 -1 10 4 10 6 0 11 -4 11 -10z m270 0 c0 -5 -4 -10 -10 -10 -5 0
-10 5 -10 10 0 6 5 10 10 10 6 0 10 -4 10 -10z m-1810 -20 c0 -11 -7 -20 -15
-20 -18 0 -19 12 -3 28 16 16 18 15 18 -8z m1620 4 c11 -13 10 -16 -9 -21 -18
-4 -21 -11 -17 -29 5 -19 3 -22 -11 -17 -11 4 -14 3 -9 -5 4 -7 15 -12 24 -13
12 0 13 -2 3 -6 -10 -4 -10 -7 -1 -13 7 -4 10 -14 8 -21 -3 -9 -10 -6 -24 10
-10 13 -27 32 -36 42 -17 18 -17 19 2 29 11 6 20 16 20 23 0 14 19 37 31 37 4
0 12 -7 19 -16z m-990 -4 c0 -5 -2 -10 -4 -10 -3 0 -8 5 -11 10 -3 6 -1 10 4
10 6 0 11 -4 11 -10z m97 -12 c-3 -8 -6 -5 -6 6 -1 11 2 17 5 13 3 -3 4 -12 1
-19z m33 12 c0 -5 -4 -10 -10 -10 -5 0 -10 5 -10 10 0 6 5 10 10 10 6 0 10 -4
10 -10z m-1068 -38 c-7 -2 -12 -15 -12 -29 0 -16 -7 -27 -19 -30 -22 -6 -46
-46 -37 -62 4 -6 20 -11 37 -11 22 0 29 5 29 19 0 32 29 54 62 47 26 -5 29 -3
23 14 -4 14 -2 20 8 20 9 0 17 -5 19 -12 2 -6 13 8 23 33 l19 44 4 -34 c2 -20
-2 -37 -9 -42 -8 -4 -10 -11 -7 -15 4 -4 3 -15 -3 -26 -10 -18 -9 -19 13 -7
13 6 30 18 39 25 13 11 19 11 37 -2 25 -17 29 -34 8 -34 -8 0 -17 -7 -20 -16
-5 -13 -9 -14 -21 -4 -15 12 -55 5 -55 -11 0 -5 -11 -9 -25 -9 -15 0 -25 -6
-25 -14 0 -8 -3 -21 -6 -30 -5 -13 -1 -14 24 -7 26 8 33 5 51 -18 l22 -26 -26
-22 c-14 -13 -34 -23 -43 -23 -14 0 -13 -4 6 -18 l23 -18 -40 -32 c-22 -18
-47 -32 -55 -32 -21 0 -20 -19 0 -49 14 -20 23 -22 56 -18 49 7 68 22 68 57 0
17 7 30 16 34 23 9 26 3 15 -27 -7 -18 -7 -27 2 -30 9 -3 9 -8 0 -18 -9 -9
-13 -10 -13 -1 0 6 -13 -2 -29 -18 -18 -20 -34 -28 -45 -24 -9 3 -23 3 -31 0
-14 -5 -14 -9 1 -32 15 -22 23 -25 51 -21 24 4 33 2 33 -8 0 -15 -46 -32 -57
-21 -3 3 -11 2 -17 -3 -16 -12 -66 -23 -66 -13 0 4 7 18 16 30 14 20 14 22 -2
22 -10 0 -14 5 -11 15 12 29 -14 26 -31 -4 -23 -41 -32 -39 -25 4 6 37 1 43
-21 23 -10 -10 -11 -17 -2 -31 9 -14 8 -20 -4 -27 -12 -8 -12 -10 -1 -10 7 0
11 -6 8 -15 -4 -8 -2 -17 3 -20 17 -10 11 -35 -5 -28 -21 8 -55 -25 -55 -54 0
-25 -14 -31 -26 -11 -4 6 -2 14 4 16 18 6 14 40 -5 50 -15 9 -15 12 -1 34 9
13 18 40 19 59 3 28 1 33 -14 31 -10 -2 -17 3 -17 13 0 9 -10 26 -21 38 -12
12 -19 16 -15 10 5 -9 0 -13 -13 -13 -11 0 -25 9 -31 20 -6 11 -17 20 -25 20
-8 0 -15 5 -15 10 0 6 5 10 11 10 6 0 9 7 5 15 -3 8 -1 15 5 15 5 0 7 11 3 25
-4 17 -2 25 7 25 12 0 12 2 0 9 -7 5 -11 13 -8 18 9 14 -15 63 -30 63 -7 0
-13 7 -13 17 0 14 -2 14 -20 -2 -23 -21 -25 -16 -8 19 6 14 19 28 30 31 10 4
18 11 18 16 0 6 7 6 19 -1 26 -13 31 -13 31 4 0 7 7 19 15 26 9 8 15 9 15 2 0
-6 -5 -14 -10 -17 -16 -10 -1 -25 26 -25 17 0 24 5 24 19 0 21 17 37 27 27 3
-3 0 -12 -7 -21 -11 -13 -10 -15 1 -10 8 3 20 14 26 24 10 17 9 20 -13 25 -14
4 -22 11 -19 17 4 5 15 7 25 4 10 -3 21 -1 25 5 3 6 11 7 17 4 7 -5 9 -1 5 9
-4 10 4 28 21 46 23 27 27 29 36 14 6 -11 5 -18 -2 -21z m846 21 c4 -6 18 -14
30 -18 17 -5 22 -12 19 -25 -3 -11 -2 -21 2 -23 3 -2 0 -2 -8 0 -8 2 -21 -3
-30 -10 -32 -28 -69 -9 -40 20 13 13 8 44 -6 44 -5 -1 -10 -7 -10 -13 0 -8
-15 -14 -35 -16 l-35 -2 28 17 c15 10 27 23 27 31 0 15 48 11 58 -5z m1372 1
c0 -8 -4 -12 -10 -9 -5 3 -10 10 -10 16 0 5 5 9 10 9 6 0 10 -7 10 -16z
m-2320 -4 c0 -5 -2 -10 -4 -10 -3 0 -8 5 -11 10 -3 6 -1 10 4 10 6 0 11 -4 11
-10z m460 -6 c0 -8 -4 -12 -10 -9 -5 3 -10 10 -10 16 0 5 5 9 10 9 6 0 10 -7
10 -16z m110 6 c0 -5 6 -7 14 -4 7 3 26 -6 42 -20 24 -21 26 -27 15 -35 -12
-8 -7 -14 22 -31 29 -17 37 -28 37 -51 0 -16 -2 -29 -4 -29 -2 0 -12 -3 -22
-7 -13 -5 -16 -3 -11 10 5 13 1 17 -19 17 -21 0 -24 4 -19 20 6 18 3 20 -19
14 -17 -4 -35 0 -51 10 -21 14 -25 14 -32 1 -5 -9 -17 -12 -31 -8 -23 6 -31
23 -10 23 6 0 9 3 6 6 -4 3 -16 1 -27 -6 -17 -9 -21 -8 -21 4 0 17 42 31 65
22 8 -3 15 -1 15 5 0 6 6 6 18 0 14 -7 21 -5 30 9 6 11 8 22 3 24 -5 3 -12 -1
-15 -10 -10 -26 -18 -10 -10 20 6 25 24 37 24 16z m514 2 c2 -4 1 -14 -4 -21
-6 -11 -10 -9 -19 8 -10 17 -9 21 3 21 8 0 17 -4 20 -8z m596 -2 c0 -5 -2 -10
-4 -10 -3 0 -8 5 -11 10 -3 6 -1 10 4 10 6 0 11 -4 11 -10z m-1375 -10 c-3 -5
-13 -10 -21 -10 -8 0 -14 5 -14 10 0 6 9 10 21 10 11 0 17 -4 14 -10z m1945
-4 c0 -15 -24 -28 -34 -19 -13 14 -5 33 14 33 11 0 20 -6 20 -14z m-1865 -6
c-3 -5 -13 -10 -21 -10 -8 0 -12 5 -9 10 3 6 13 10 21 10 8 0 12 -4 9 -10z
m721 -27 c-11 -11 -19 6 -11 24 8 17 8 17 12 0 3 -10 2 -21 -1 -24z m98 22
c-4 -8 -1 -15 5 -15 6 0 11 -7 11 -15 0 -8 -4 -15 -9 -15 -5 0 -16 -3 -25 -6
-14 -5 -15 4 -7 59 0 4 8 7 16 7 9 0 12 -6 9 -15z m556 1 c0 -7 -7 -19 -16
-27 -13 -10 -17 -10 -24 1 -4 7 -6 19 -3 27 7 17 43 17 43 -1z m141 -9 c-10
-9 -11 -8 -5 6 3 10 9 15 12 12 3 -3 0 -11 -7 -18z m232 -60 c11 -29 -18 -19
-51 18 -42 48 -32 73 12 31 18 -18 35 -40 39 -49z m-2321 34 c-2 -17 -7 -29
-11 -26 -4 2 -6 18 -3 34 2 17 7 29 11 26 4 -2 6 -18 3 -34z m38 29 c0 -5 -4
-10 -10 -10 -5 0 -10 5 -10 10 0 6 5 10 10 10 6 0 10 -4 10 -10z m50 0 c0 -5
-2 -10 -4 -10 -3 0 -8 5 -11 10 -3 6 -1 10 4 10 6 0 11 -4 11 -10z m1246 -17
c-10 -10 -19 5 -10 18 6 11 8 11 12 0 2 -7 1 -15 -2 -18z m734 12 c0 -8 -4
-15 -10 -15 -5 0 -10 7 -10 15 0 8 5 15 10 15 6 0 10 -7 10 -15z m-1860 -15
c0 -5 -4 -10 -10 -10 -5 0 -10 5 -10 10 0 6 5 10 10 10 6 0 10 -4 10 -10z
m370 0 c0 -5 -7 -7 -15 -4 -8 4 -15 8 -15 10 0 2 7 4 15 4 8 0 15 -4 15 -10z
m700 -5 c10 -12 10 -15 -3 -15 -8 0 -20 7 -27 15 -10 12 -10 15 3 15 8 0 20
-7 27 -15z m380 0 c0 -8 -4 -15 -10 -15 -5 0 -10 7 -10 15 0 8 5 15 10 15 6 0
10 -7 10 -15z m227 -17 c-3 -7 -5 -2 -5 12 0 14 2 19 5 13 2 -7 2 -19 0 -25z
m553 22 c0 -5 -5 -10 -11 -10 -5 0 -7 5 -4 10 3 6 8 10 11 10 2 0 4 -4 4 -10z
m-2085 -10 c-3 -5 -12 -10 -20 -10 -8 0 -17 5 -20 10 -4 6 5 10 20 10 15 0 24
-4 20 -10z m-768 -32 c-3 -8 -6 -5 -6 6 -1 11 2 17 5 13 3 -3 4 -12 1 -19z
m363 18 c0 -16 -15 -36 -27 -36 -10 0 -12 -6 -8 -20 9 -28 -4 -25 -14 3 -6 15
-4 27 7 40 13 15 42 24 42 13z m200 -5 c0 -12 -20 -25 -27 -18 -7 7 6 27 18
27 5 0 9 -4 9 -9z m1960 5 c0 -3 -4 -8 -10 -11 -5 -3 -10 -1 -10 4 0 6 5 11
10 11 6 0 10 -2 10 -4z m-2286 -33 c12 1 26 -10 37 -30 l19 -33 -25 0 c-18 0
-23 -4 -18 -16 4 -12 1 -15 -13 -12 -10 2 -20 9 -20 16 -1 6 -2 19 -3 28 -1
10 -7 13 -20 9 -17 -5 -17 -3 -7 30 9 28 13 32 22 21 5 -8 18 -14 28 -13z
m256 17 c0 -5 -7 -10 -16 -10 -8 0 -12 5 -9 10 3 6 10 10 16 10 5 0 9 -4 9
-10z m996 -16 c-3 -8 1 -17 9 -20 22 -9 18 -23 -5 -21 -11 1 -20 6 -20 11 0 6
-5 5 -12 -2 -19 -19 -25 -14 -25 18 0 22 6 30 21 33 28 4 39 -2 32 -19z m154
11 c0 -8 -4 -15 -9 -15 -5 0 -11 7 -15 15 -3 9 0 15 9 15 8 0 15 -7 15 -15z
m190 5 c0 -5 -4 -10 -10 -10 -5 0 -10 5 -10 10 0 6 5 10 10 10 6 0 10 -4 10
-10z m1143 -15 c-7 -21 -13 -19 -13 6 0 11 4 18 10 14 5 -3 7 -12 3 -20z
m-1959 0 c3 -9 0 -15 -9 -15 -8 0 -15 7 -15 15 0 8 4 15 9 15 5 0 11 -7 15
-15z m336 -14 c0 8 8 15 18 15 14 0 19 -8 19 -29 0 -26 -2 -27 -31 -21 -32 7
-46 19 -46 43 0 11 5 10 20 -4 16 -14 20 -15 20 -4z m430 -1 c0 -10 -26 -20
-34 -13 -14 14 -5 31 14 26 11 -3 20 -9 20 -13z m1250 10 c0 -5 -7 -10 -15
-10 -8 0 -15 5 -15 10 0 6 7 10 15 10 8 0 15 -4 15 -10z m-2350 -10 c0 -5 -2
-10 -4 -10 -3 0 -8 5 -11 10 -3 6 -1 10 4 10 6 0 11 -4 11 -10z m2206 -2 c-5
8 -1 12 12 12 11 0 22 -7 26 -15 3 -8 12 -15 21 -15 19 0 19 -7 0 -26 -23 -23
-18 -37 10 -32 36 7 32 -19 -4 -27 -35 -7 -99 24 -117 57 -11 20 -10 25 9 40
17 13 25 14 36 5 12 -9 13 -9 7 1z m-2490 -7 c-4 -5 0 -11 6 -14 7 -2 9 -8 5
-13 -4 -5 -12 -2 -17 6 -13 20 -12 30 1 30 5 0 8 -4 5 -9z m2214 -1 c0 -5 -4
-10 -10 -10 -5 0 -10 5 -10 10 0 6 5 10 10 10 6 0 10 -4 10 -10z m-1430 -39
c0 -6 9 -11 20 -11 24 0 26 -22 4 -41 -14 -11 -19 -9 -36 11 -11 14 -17 19
-13 13 7 -15 4 -16 -28 -4 -19 8 -27 6 -31 -5 -9 -22 -35 -17 -29 6 3 11 12
20 19 20 8 0 14 5 14 10 0 6 6 10 14 10 7 0 19 7 26 15 10 12 14 12 26 0 8 -7
14 -18 14 -24z m390 24 c-7 -8 -17 -12 -22 -9 -6 4 -5 10 3 15 22 14 33 10 19
-6z m-1683 -22 c1 -19 -1 -22 -8 -12 -11 17 -12 39 -1 39 4 0 8 -12 9 -27z
m1146 7 c22 -26 21 -30 -3 -30 -16 0 -40 26 -40 44 0 14 27 4 43 -14z m707
-10 c0 -10 -25 -20 -49 -20 -14 0 -17 6 -14 24 5 22 8 23 34 14 16 -5 29 -14
29 -18z m-1592 -2 c-2 -17 -13 -24 -43 -30 -21 -5 -42 -14 -47 -20 -4 -7 -11
-9 -15 -4 -4 5 -2 11 5 13 17 6 15 23 -3 23 -8 0 -15 -6 -15 -14 0 -9 -7 -12
-19 -9 -12 3 -17 11 -14 19 3 8 9 11 14 8 6 -3 17 0 25 7 13 11 63 24 102 28
8 1 12 -7 10 -21z m42 0 c0 -6 7 -19 16 -29 15 -17 15 -18 -12 -13 -36 7 -37
8 -29 33 7 22 25 29 25 9z m794 -13 c3 -8 13 -15 22 -15 13 0 11 -5 -10 -25
-34 -32 -33 -39 4 -20 28 14 31 14 50 -5 11 -11 20 -24 20 -30 0 -13 -17 -13
-25 0 -7 12 -64 8 -62 -4 1 -6 -5 -11 -14 -13 -19 -5 -38 49 -20 55 6 2 11 10
11 18 0 11 -4 12 -19 4 -39 -20 -34 16 4 38 27 15 32 15 39 -3z m1846 5 c0 -5
-2 -10 -4 -10 -3 0 -8 5 -11 10 -3 6 -1 10 4 10 6 0 11 -4 11 -10z m-2860 -4
c0 -3 -4 -8 -10 -11 -5 -3 -10 -1 -10 4 0 6 5 11 10 11 6 0 10 -2 10 -4z
m1488 -11 c4 6 31 11 60 12 58 3 65 -8 34 -47 -19 -23 -42 -21 -42 5 0 15 -27
28 -35 16 -5 -9 -65 -21 -65 -14 0 3 5 14 11 25 9 17 13 18 20 7 6 -9 12 -10
17 -4z m-1538 -5 c0 -5 -4 -10 -10 -10 -5 0 -10 5 -10 10 0 6 5 10 10 10 6 0
10 -4 10 -10z m1427 -12 c-3 -8 -6 -5 -6 6 -1 11 2 17 5 13 3 -3 4 -12 1 -19z
m313 8 c0 -8 -4 -18 -10 -21 -5 -3 -10 3 -10 14 0 12 5 21 10 21 6 0 10 -6 10
-14z m1068 -4 c2 -7 -2 -10 -12 -6 -9 3 -16 11 -16 16 0 13 23 5 28 -10z
m-1038 -2 c0 -5 -4 -10 -10 -10 -5 0 -10 5 -10 10 0 6 5 10 10 10 6 0 10 -4
10 -10z m-1570 -10 c0 -5 -2 -10 -4 -10 -3 0 -8 5 -11 10 -3 6 -1 10 4 10 6 0
11 -4 11 -10z m1200 0 c0 -5 -2 -10 -4 -10 -3 0 -8 5 -11 10 -3 6 -1 10 4 10
6 0 11 -4 11 -10z m1360 -5 c0 -8 -7 -15 -15 -15 -16 0 -20 12 -8 23 11 12 23
8 23 -8z m170 5 c8 -5 12 -12 9 -15 -8 -8 -39 5 -39 16 0 11 11 11 30 -1z
m-2950 -10 c0 -5 -5 -10 -11 -10 -5 0 -7 5 -4 10 3 6 8 10 11 10 2 0 4 -4 4
-10z m264 -5 c-6 -16 -34 -21 -34 -7 0 13 11 22 26 22 8 0 11 -6 8 -15z m2916
0 c0 -8 -4 -15 -9 -15 -5 0 -11 7 -15 15 -3 9 0 15 9 15 8 0 15 -7 15 -15z
m-2884 -12 c-4 -9 -1 -20 5 -24 8 -4 5 -13 -10 -28 -12 -12 -19 -26 -16 -31 3
-6 -1 -7 -9 -4 -20 8 -20 16 2 40 9 10 16 29 14 42 -2 12 2 22 8 22 7 0 9 -7
6 -17z m3104 7 c0 -5 -4 -10 -10 -10 -5 0 -10 5 -10 10 0 6 5 10 10 10 6 0 10
-4 10 -10z m-2886 -16 c4 -10 1 -14 -6 -12 -15 5 -23 28 -10 28 5 0 13 -7 16
-16z m1639 9 c-7 -2 -21 -2 -30 0 -10 3 -4 5 12 5 17 0 24 -2 18 -5z m-1803
-7 c0 -3 -4 -8 -10 -11 -5 -3 -10 -1 -10 4 0 6 5 11 10 11 6 0 10 -2 10 -4z
m660 -10 c0 -8 6 -16 13 -19 22 -7 -5 -59 -36 -70 -16 -5 -31 -6 -34 -3 -9 8
18 37 28 30 5 -3 9 0 9 5 0 6 -8 11 -17 11 -16 1 -16 2 2 16 11 8 19 22 17 30
-2 8 2 14 8 14 5 0 10 -6 10 -14z m408 -8 c-7 -13 -14 -25 -15 -27 -1 -2 -9 4
-18 13 -20 20 -11 36 21 36 22 0 23 -2 12 -22z m1882 1 c0 -5 -4 -9 -10 -9 -5
0 -10 7 -10 16 0 8 5 12 10 9 6 -3 10 -10 10 -16z m-3320 -1 c0 -9 3 -9 12 0
15 15 28 16 28 2 0 -6 -11 -15 -25 -20 -29 -11 -32 -28 -7 -46 13 -9 14 -16 5
-24 -8 -9 -13 -7 -18 9 -3 12 -11 21 -17 21 -5 0 -8 6 -5 14 3 8 1 17 -6 19
-9 3 -8 8 2 20 16 20 31 22 31 5z m150 2 c0 -5 -7 -10 -15 -10 -8 0 -15 5 -15
10 0 6 7 10 15 10 8 0 15 -4 15 -10z m45 0 c5 -8 11 -7 21 1 11 9 17 9 29 -1
16 -13 21 -35 6 -25 -5 3 -12 1 -16 -5 -3 -5 -1 -10 5 -10 7 0 8 -5 3 -12 -4
-7 -8 -16 -9 -20 -1 -5 -3 -10 -4 -13 -1 -3 -3 -10 -4 -16 0 -6 -21 -18 -46
-26 -42 -14 -45 -14 -60 4 -9 11 -22 22 -30 25 -10 3 -8 10 9 27 12 12 29 20
37 17 9 -3 16 4 20 19 3 14 10 25 16 25 5 0 6 5 3 10 -3 6 -2 10 4 10 5 0 13
-5 16 -10z m1283 -6 c-9 -9 -21 -13 -28 -9 -14 9 5 25 30 25 12 0 12 -3 -2
-16z m322 6 c0 -5 7 -7 16 -3 13 5 15 2 10 -15 -6 -17 -4 -21 8 -16 9 3 16 2
16 -2 -1 -29 -89 -89 -97 -66 -6 17 -38 15 -53 -3 -12 -15 -11 -16 13 -19 6 0
13 -7 13 -13 1 -7 2 -17 3 -22 2 -18 54 -4 73 19 16 20 21 21 48 10 34 -14 34
-14 19 -42 -8 -14 -17 -18 -34 -14 -29 7 -44 -26 -23 -51 12 -15 10 -16 -17
-9 -29 7 -44 21 -45 41 0 6 -10 21 -21 34 -16 20 -24 23 -37 15 -21 -13 -42
-7 -42 12 0 8 -6 11 -15 8 -8 -4 -15 -1 -15 5 0 6 4 11 9 11 5 0 13 9 16 21 5
16 9 18 21 8 12 -10 13 -9 8 5 -4 9 -1 16 6 16 7 0 10 7 6 15 -4 11 3 17 24
22 16 3 27 9 24 14 -3 5 4 9 15 9 12 0 21 5 21 10 0 6 7 10 15 10 8 0 15 -4
15 -10z m80 -1 c0 -6 8 -9 18 -6 60 19 65 20 58 9 -4 -7 -2 -12 3 -12 15 0 14
-40 -1 -40 -8 0 -5 -7 6 -15 11 -8 17 -15 13 -15 -4 0 -3 -9 3 -19 8 -16 6
-21 -12 -27 -16 -5 -26 0 -39 17 -17 22 -17 25 -2 37 15 11 15 12 1 12 -9 0
-20 -4 -23 -10 -3 -5 -20 -10 -37 -10 l-31 0 23 25 c19 21 21 25 7 25 -10 0
-17 8 -17 20 0 11 7 20 15 20 8 0 15 -5 15 -11z m855 -10 c4 -11 4 -23 1 -26
-3 -4 -6 2 -6 13 0 16 -2 16 -10 4 -11 -18 -23 -8 -14 14 8 22 21 20 29 -5z
m112 7 c0 -8 -6 -12 -14 -9 -7 3 -13 9 -13 14 0 5 6 9 13 9 8 0 14 -6 14 -14z
m-1306 -10 c5 3 9 0 9 -5 0 -6 -9 -11 -20 -11 -20 0 -26 11 -13 24 4 4 9 2 11
-3 2 -6 8 -9 13 -5z m1604 4 c3 -5 1 -10 -4 -10 -6 0 -11 5 -11 10 0 6 2 10 4
10 3 0 8 -4 11 -10z m-1991 -16 c8 -22 9 -21 -19 -21 -21 0 -23 2 -14 18 12
23 25 24 33 3z m1744 -7 c22 -1 32 -27 11 -27 -21 0 -49 21 -49 38 0 13 2 14
9 4 4 -7 18 -14 29 -15z m-1552 4 c-8 -12 22 -24 58 -25 16 -1 31 -7 34 -15 3
-10 -3 -13 -26 -9 -18 2 -33 0 -35 -5 -2 -6 -12 -5 -25 2 -12 7 -27 9 -32 6
-6 -4 -17 1 -26 9 -14 15 -13 16 10 16 16 0 26 6 26 15 0 8 5 15 11 15 5 0 8
-4 5 -9z m1664 -1 c0 -5 -2 -10 -4 -10 -3 0 -8 5 -11 10 -3 6 -1 10 4 10 6 0
11 -4 11 -10z m-2670 -7 c0 -5 -5 -15 -10 -23 -8 -12 -10 -11 -10 8 0 12 5 22
10 22 6 0 10 -3 10 -7z m1820 -3 c0 -5 -4 -10 -10 -10 -5 0 -10 5 -10 10 0 6
5 10 10 10 6 0 10 -4 10 -10z m-1770 -7 c-1 -5 -6 -18 -14 -31 -11 -21 -14
-22 -25 -8 -17 21 -7 46 19 46 11 0 20 -3 20 -7z m190 3 c0 -3 -4 -8 -10 -11
-5 -3 -10 -1 -10 4 0 6 5 11 10 11 6 0 10 -2 10 -4z m631 -29 c-16 -16 -26 0
-10 19 9 11 15 12 17 4 2 -6 -1 -17 -7 -23z m-784 8 c8 -9 13 -18 11 -21 -3
-2 -13 5 -23 16 -21 23 -11 27 12 5z m73 -15 c0 -11 -4 -20 -10 -20 -5 0 -10
9 -10 20 0 11 5 20 10 20 6 0 10 -9 10 -20z m-552 -24 c11 -8 11 -12 -4 -23
-14 -10 -20 -10 -33 0 -12 10 -14 9 -8 -5 5 -14 1 -17 -16 -17 -12 1 -29 -1
-38 -5 -12 -5 -18 -1 -23 16 -12 45 -8 49 34 42 26 -4 40 -3 40 4 0 12 26 6
48 -12z m379 -5 c-7 -2 -20 -11 -31 -20 -17 -15 -18 -14 -15 9 3 17 9 24 22
22 9 -2 17 3 17 10 0 9 3 9 10 -2 6 -10 5 -16 -3 -19z m1223 19 c0 -5 -4 -10
-10 -10 -5 0 -10 5 -10 10 0 6 5 10 10 10 6 0 10 -4 10 -10z m653 -6 c9 -4 17
-13 17 -20 0 -17 -32 -18 -48 -2 -16 16 -15 41 1 34 6 -3 20 -9 30 -12z
m-2218 -4 c3 -5 1 -10 -4 -10 -6 0 -11 5 -11 10 0 6 2 10 4 10 3 0 8 -4 11
-10z m422 -5 c0 -8 -4 -15 -8 -15 -4 0 -16 -3 -26 -7 -16 -5 -16 -4 2 15 24
25 32 27 32 7z m1043 0 c0 -9 -6 -12 -15 -9 -8 4 -15 10 -15 15 0 5 7 9 15 9
8 0 15 -7 15 -15z m-1378 -13 c-7 -2 -10 -8 -6 -13 3 -5 0 -9 -5 -9 -13 0 -13
3 -5 24 3 9 11 13 17 9 8 -5 7 -8 -1 -11z m1266 0 c2 -7 -3 -12 -12 -12 -9 0
-16 7 -16 16 0 17 22 14 28 -4z m1015 12 c9 -10 -4 -34 -19 -34 -16 0 -16 2
-8 24 6 17 16 20 27 10z m-2098 -44 c-8 -35 -13 -35 -20 1 -3 13 1 26 7 30 18
11 21 4 13 -31z m1135 30 c0 -5 -4 -10 -9 -10 -6 0 -13 5 -16 10 -3 6 1 10 9
10 9 0 16 -4 16 -10z m-1590 -11 c0 -3 -8 -13 -17 -21 -14 -11 -23 -12 -39 -4
-30 16 -18 35 22 33 18 -1 34 -5 34 -8z m545 1 c3 -5 1 -10 -4 -10 -6 0 -11 5
-11 10 0 6 2 10 4 10 3 0 8 -4 11 -10z m1085 2 c0 -4 -6 -14 -12 -21 -7 -7 -8
-12 -3 -11 6 2 15 1 20 0 29 -7 81 -4 87 5 4 5 11 -2 17 -17 12 -32 68 -49 85
-26 6 8 28 17 48 21 l37 6 -4 -40 c-3 -33 -1 -39 16 -39 16 0 18 -5 13 -25 -5
-21 -3 -25 15 -25 36 0 69 -41 63 -78 -2 -18 -8 -32 -13 -32 -5 0 -9 3 -9 8 0
13 -95 9 -105 -6 -9 -11 -15 -10 -38 8 -21 17 -27 18 -27 6 0 -8 5 -18 10 -21
15 -9 12 -25 -5 -25 -8 0 -15 9 -15 20 0 11 -5 20 -11 20 -6 0 -8 -9 -4 -21 6
-19 4 -21 -18 -15 -14 3 -29 2 -32 -4 -8 -13 -35 -13 -35 0 0 6 10 15 23 20
15 6 17 9 6 9 -9 1 -22 8 -29 16 -10 12 -8 17 13 26 15 7 23 17 20 25 -6 16
-23 19 -23 4 0 -6 -8 -20 -18 -31 -22 -23 -52 -16 -52 13 0 15 5 18 20 13 24
-8 27 9 5 27 -9 7 -22 19 -30 26 -11 10 -15 8 -20 -7 -6 -20 -33 -19 -47 2 -4
6 -13 4 -23 -6 -10 -11 -12 -17 -5 -17 7 0 10 -8 7 -19 -3 -12 1 -22 10 -25 8
-3 11 -1 8 4 -9 15 12 12 27 -4 8 -8 23 -16 34 -18 12 -2 18 -11 17 -23 -1
-11 4 -23 10 -27 7 -4 -5 -8 -25 -8 -21 0 -38 5 -38 10 0 6 -4 10 -10 10 -5 0
-10 -6 -10 -14 0 -8 -5 -18 -12 -22 -6 -4 -8 -3 -4 4 12 20 -29 19 -51 -1 -18
-16 -25 -18 -37 -8 -12 10 -20 10 -38 -1 -23 -13 -23 -13 10 -16 28 -3 30 -5
18 -18 -14 -14 -94 -33 -129 -32 -10 1 -16 7 -13 14 7 19 -34 44 -61 38 -17
-5 -23 -2 -23 11 0 13 3 15 13 7 14 -12 47 7 47 27 0 21 20 11 35 -19 15 -29
41 -43 32 -17 -2 6 11 30 30 51 18 22 33 46 33 53 0 7 9 13 20 13 11 0 20 6
20 14 0 8 3 21 6 30 4 10 1 16 -9 16 -13 0 -13 4 -4 25 7 14 18 25 25 25 7 0
10 5 7 10 -3 6 1 10 9 10 8 0 18 9 21 20 4 12 18 23 36 27 16 3 26 10 23 15
-3 5 0 15 6 23 13 16 40 20 40 7z m-1435 -12 c-3 -5 -11 -10 -16 -10 -6 0 -7
5 -4 10 3 6 11 10 16 10 6 0 7 -4 4 -10z m-38 -16 c2 -5 -9 -11 -23 -12 -23
-2 -25 0 -14 13 14 16 31 16 37 -1z m363 7 c0 -12 -39 -21 -45 -11 -3 5 1 11
7 13 21 9 38 8 38 -2z m1275 -1 c3 -5 -1 -10 -9 -10 -9 0 -16 5 -16 10 0 6 4
10 9 10 6 0 13 -4 16 -10z m1360 0 c3 -5 1 -10 -4 -10 -6 0 -11 5 -11 10 0 6
2 10 4 10 3 0 8 -4 11 -10z m-2845 -25 c0 -8 -9 -19 -20 -25 -17 -9 -20 -8
-20 8 0 10 3 22 7 25 12 12 33 7 33 -8z m2223 -5 c-5 -20 -15 -25 -26 -14 -9
9 4 34 18 34 8 0 11 -8 8 -20z m-2455 -18 c2 -15 -2 -22 -12 -22 -11 0 -16 9
-16 26 0 31 23 28 28 -4z m592 18 c13 -8 11 -12 -7 -30 -21 -19 -63 -28 -63
-14 0 7 42 51 50 53 3 0 12 -4 20 -9z m1145 0 c3 -5 1 -10 -4 -10 -6 0 -11 5
-11 10 0 6 2 10 4 10 3 0 8 -4 11 -10z m-1818 -30 c1 -11 -3 -20 -8 -20 -6 0
-7 5 -4 10 3 6 1 10 -4 10 -6 0 -11 5 -11 10 0 19 26 10 27 -10z m546 -13 c3
3 14 -2 23 -12 12 -12 13 -16 3 -14 -8 2 -25 -3 -38 -10 -22 -12 -23 -12 -19
7 4 15 1 18 -13 15 -14 -4 -19 0 -19 15 0 28 22 34 41 11 9 -10 19 -16 22 -12z
m257 23 c0 -5 9 -10 20 -10 23 0 26 -10 8 -28 -17 -17 -31 -15 -25 2 4 9 -2
17 -14 21 -22 7 -26 25 -4 25 8 0 15 -4 15 -10z m1636 -17 c-10 -10 -19 5 -10
18 6 11 8 11 12 0 2 -7 1 -15 -2 -18z m-2506 -9 c0 -8 -4 -13 -9 -10 -5 4 -12
0 -14 -6 -4 -8 -6 -7 -6 4 -1 14 6 21 27 27 1 1 2 -6 2 -15z m514 -23 c1 -44
-20 -52 -29 -12 -4 17 -13 31 -21 31 -8 0 -14 3 -14 8 0 4 14 7 32 7 30 0 32
-3 32 -34z m1898 17 c-7 -7 -12 -8 -12 -2 0 6 3 14 7 17 3 4 9 5 12 2 2 -3 -1
-11 -7 -17z m-2066 1 c8 -14 -14 -29 -33 -22 -7 3 -13 11 -13 19 0 17 36 19
46 3z m1814 -9 c0 -5 -4 -10 -10 -10 -5 0 -10 5 -10 10 0 6 5 10 10 10 6 0 10
-4 10 -10z m-1965 -39 c-6 -26 -30 -51 -48 -51 -5 0 -7 6 -4 14 3 7 0 19 -6
26 -9 10 -9 14 1 17 7 3 18 11 25 18 19 21 39 6 32 -24z m3175 29 c0 -5 -4
-10 -10 -10 -5 0 -10 5 -10 10 0 6 5 10 10 10 6 0 10 -4 10 -10z m-3373 -22
c-3 -8 -6 -5 -6 6 -1 11 2 17 5 13 3 -3 4 -12 1 -19z m953 18 c0 -11 -19 -15
-25 -6 -3 5 1 10 9 10 9 0 16 -2 16 -4z m2224 -17 c-3 -5 -10 -7 -15 -3 -5 3
-7 10 -3 15 3 5 10 7 15 3 5 -3 7 -10 3 -15z m-2744 -20 c0 -6 -4 -7 -10 -4
-5 3 -10 11 -10 16 0 6 5 7 10 4 6 -3 10 -11 10 -16z m42 -37 c-2 -7 -10 -11
-16 -9 -6 3 -20 -3 -30 -12 -18 -15 -19 -15 -13 1 4 12 2 15 -9 11 -25 -9 -15
13 11 25 14 6 25 17 25 24 0 6 8 3 19 -8 10 -10 16 -25 13 -32z m215 42 c-3
-3 -12 -4 -19 -1 -8 3 -5 6 6 6 11 1 17 -2 13 -5z m-607 -40 c0 -8 -6 -14 -14
-14 -9 0 -12 7 -9 20 6 22 23 18 23 -6z m1267 4 c-3 -8 -6 -5 -6 6 -1 11 2 17
5 13 3 -3 4 -12 1 -19z m894 9 c-1 -12 -15 -9 -19 4 -3 6 1 10 8 8 6 -3 11 -8
11 -12z m-1701 -21 c0 -2 -7 -9 -15 -16 -12 -10 -15 -10 -15 4 0 9 7 16 15 16
8 0 15 -2 15 -4z m762 -21 c-2 -14 -6 -25 -8 -25 -2 0 -4 11 -4 25 0 14 4 25
9 25 4 0 6 -11 3 -25z m178 10 c0 -9 -6 -12 -15 -9 -8 4 -15 10 -15 15 0 5 7
9 15 9 8 0 15 -7 15 -15z m800 11 c0 -3 -4 -8 -10 -11 -5 -3 -10 -1 -10 4 0 6
5 11 10 11 6 0 10 -2 10 -4z m-1190 -16 c0 -5 -4 -10 -10 -10 -5 0 -10 5 -10
10 0 6 5 10 10 10 6 0 10 -4 10 -10z m1602 -12 c-6 -6 -15 -8 -19 -4 -4 4 -1
11 7 16 19 12 27 3 12 -12z m-1337 -28 c0 -7 -6 -15 -12 -17 -8 -3 -13 4 -13
17 0 13 5 20 13 18 6 -3 12 -11 12 -18z m-1065 0 c0 -5 -5 -10 -11 -10 -5 0
-7 5 -4 10 3 6 8 10 11 10 2 0 4 -4 4 -10z m210 1 c0 -6 -4 -13 -10 -16 -5 -3
-10 1 -10 9 0 9 5 16 10 16 6 0 10 -4 10 -9z m936 -18 c-10 -10 -19 5 -10 18
6 11 8 11 12 0 2 -7 1 -15 -2 -18z m714 17 c0 -5 -4 -10 -10 -10 -5 0 -10 5
-10 10 0 6 5 10 10 10 6 0 10 -4 10 -10z m-869 -15 c-1 -15 -24 -12 -29 3 -3
9 2 13 12 10 10 -1 17 -7 17 -13z m1387 -12 c-5 -25 -28 -28 -28 -4 0 12 6 21
16 21 9 0 14 -7 12 -17z m891 0 c21 -17 19 -33 -3 -33 -8 0 -16 11 -18 25 -6
30 -4 30 21 8z m-825 1 c24 -9 20 -33 -4 -27 -11 3 -20 12 -20 19 0 16 2 16
24 8z m141 -4 c3 -5 2 -10 -4 -10 -5 0 -13 5 -16 10 -3 6 -2 10 4 10 5 0 13
-4 16 -10z m-2581 -6 c25 -9 19 -29 -9 -30 -23 -2 -33 14 -18 29 8 8 8 8 27 1z
m616 -21 c0 -10 -6 -13 -16 -9 -9 3 -20 6 -25 6 -5 0 -9 5 -9 11 0 6 7 9 15 5
8 -3 15 -1 15 5 0 6 5 7 10 4 6 -3 10 -13 10 -22z m1140 17 c0 -5 -4 -10 -10
-10 -5 0 -10 5 -10 10 0 6 5 10 10 10 6 0 10 -4 10 -10z m-2070 -9 c0 -12 -20
-25 -27 -18 -7 7 6 27 18 27 5 0 9 -4 9 -9z m2618 -3 c-7 -19 -45 -21 -51 -4
-5 12 1 16 24 16 20 0 29 -4 27 -12z m102 2 c0 -5 -4 -10 -10 -10 -5 0 -10 5
-10 10 0 6 5 10 10 10 6 0 10 -4 10 -10z m-2230 -15 c0 -17 25 -20 35 -5 13
21 34 10 29 -16 -6 -31 3 -64 18 -64 5 0 7 7 4 16 -5 13 -2 15 13 11 11 -3 23
0 26 7 4 8 6 8 11 -1 3 -7 13 -10 22 -7 15 5 15 4 0 -9 -10 -8 -18 -19 -18
-26 0 -15 -17 -14 -22 1 -2 6 -10 8 -17 4 -9 -6 -9 -11 1 -23 11 -14 10 -15
-12 -8 -14 4 -22 4 -18 0 12 -13 -16 -34 -29 -23 -9 7 -13 7 -13 -1 0 -7 -10
-11 -22 -9 -13 2 -22 9 -20 16 1 6 -3 12 -8 12 -6 0 -2 12 7 27 14 21 15 25 3
18 -8 -5 -21 -17 -28 -27 -7 -10 -24 -18 -38 -18 -24 0 -33 -15 -12 -22 6 -2
0 -15 -15 -31 -15 -14 -27 -33 -27 -40 0 -20 -37 -28 -51 -11 -6 8 -19 14 -29
14 -33 0 -18 42 23 63 23 12 37 26 37 38 0 10 5 19 11 19 7 0 9 12 5 35 -6 29
-4 35 10 35 9 0 23 -8 30 -17 11 -17 15 -15 46 19 36 41 48 47 48 23z m3280 5
c0 -5 -2 -10 -4 -10 -3 0 -8 5 -11 10 -3 6 -1 10 4 10 6 0 11 -4 11 -10z
m-1110 -15 c-7 -9 -15 -13 -17 -11 -7 7 7 26 19 26 6 0 6 -6 -2 -15z m-2500
-4 c0 -22 -13 -39 -25 -34 -11 4 -12 9 -2 24 12 20 27 25 27 10z m1528 -6 c8
-6 -12 -35 -24 -35 -8 0 -23 -9 -34 -20 -11 -11 -26 -17 -35 -14 -21 8 -19 20
8 41 13 10 22 24 19 31 -2 8 6 10 30 5 18 -3 34 -7 36 -8z m185 9 c3 -3 0 -12
-6 -19 -13 -14 -47 -3 -47 15 0 11 43 14 53 4z m432 -14 c-4 -6 -10 -8 -15 -5
-4 3 -10 1 -12 -4 -1 -4 -14 -12 -27 -16 -17 -5 -22 -4 -19 6 2 7 15 16 29 20
37 11 51 10 44 -1z m-1645 -10 c0 -5 -4 -10 -10 -10 -5 0 -10 5 -10 10 0 6 5
10 10 10 6 0 10 -4 10 -10z m1419 1 c11 -7 9 -11 -9 -21 -19 -10 -25 -9 -41 9
-20 21 -20 21 8 21 15 0 34 -4 42 -9z m56 -1 c3 -5 1 -10 -4 -10 -6 0 -11 5
-11 10 0 6 2 10 4 10 3 0 8 -4 11 -10z m-785 -8 c0 -11 -41 -45 -47 -39 -5 6
28 45 40 46 4 1 7 -2 7 -7z m-302 -20 c-4 -15 0 -17 23 -14 18 3 29 0 29 -7 0
-9 5 -9 21 0 14 7 24 8 28 1 10 -15 71 -2 71 15 0 10 6 13 16 9 9 -4 22 -2 29
4 7 6 15 7 18 3 8 -13 -20 -46 -32 -38 -14 8 -14 -18 0 -32 18 -18 -8 -89 -34
-90 -12 -1 -27 -9 -33 -18 -6 -8 -16 -15 -23 -15 -6 0 -11 -6 -11 -13 0 -9 9
-12 30 -9 49 7 83 -42 36 -54 -17 -4 -22 -11 -19 -25 3 -10 11 -19 18 -19 6 0
20 -9 29 -19 10 -11 30 -23 46 -26 22 -5 27 -11 26 -35 -1 -24 -6 -30 -23 -30
-12 0 -23 -5 -25 -12 -3 -7 -11 -9 -24 -4 -11 5 -14 10 -7 13 9 3 9 12 1 36
-14 41 -15 42 -32 28 -11 -10 -16 -8 -24 6 -6 10 -14 14 -18 10 -4 -4 -2 -13
4 -19 19 -19 14 -28 -13 -28 -16 0 -25 6 -25 15 0 20 -17 19 -29 -2 -5 -10
-13 -15 -17 -11 -4 5 5 19 20 33 20 19 23 25 11 25 -12 0 -15 6 -10 20 7 23
-10 28 -19 5 -4 -11 -11 -13 -30 -5 -19 7 -34 4 -65 -13 -25 -13 -39 -27 -36
-35 7 -18 -22 -45 -39 -39 -9 4 -16 -4 -21 -20 -4 -17 -11 -23 -21 -19 -41 16
-87 -21 -63 -50 8 -10 7 -18 -6 -31 -16 -16 -18 -15 -34 4 -19 23 -58 36 -67
21 -4 -6 -9 -5 -14 3 -5 8 -1 23 11 37 11 15 17 33 14 44 -5 12 -1 18 10 18 9
0 14 -4 10 -9 -3 -5 -1 -12 5 -16 5 -3 10 1 10 9 0 9 4 16 9 16 5 0 7 10 3 22
-4 17 -2 20 12 15 23 -9 76 22 76 44 0 26 24 40 57 33 17 -3 40 -1 52 5 18 10
20 15 10 33 -10 18 -8 24 7 35 16 12 17 15 4 23 -20 13 -37 12 -45 0 -3 -5
-17 -10 -31 -10 -14 0 -24 -6 -24 -14 0 -9 -7 -12 -20 -9 -11 3 -20 9 -20 14
0 5 -7 9 -15 9 -10 0 4 20 34 50 28 28 55 50 61 50 5 0 10 9 10 19 0 11 9 23
20 26 11 3 20 11 20 16 0 5 7 9 15 9 8 0 15 5 15 11 0 6 7 9 15 5 8 -3 15 -1
15 4 0 6 5 10 11 10 6 0 9 -8 7 -18z m2572 8 c0 -5 -4 -10 -10 -10 -5 0 -10 5
-10 10 0 6 5 10 10 10 6 0 10 -4 10 -10z m-2700 -10 c0 -5 -5 -10 -11 -10 -5
0 -7 5 -4 10 3 6 8 10 11 10 2 0 4 -4 4 -10z m-802 -19 c3 -8 -1 -12 -9 -9 -7
2 -15 10 -17 17 -3 8 1 12 9 9 7 -2 15 -10 17 -17z m2211 5 c11 -7 11 -10 0
-17 -8 -5 -24 -9 -36 -9 -16 0 -20 5 -16 20 5 20 26 22 52 6z m361 -1 c0 -8
-4 -15 -9 -15 -13 0 -22 16 -14 24 11 11 23 6 23 -9z m-1880 -5 c0 -14 -24
-22 -52 -18 l-23 5 25 11 c32 14 50 15 50 2z m884 -6 c20 -8 21 -24 2 -24 -8
0 -16 7 -20 15 -6 17 -4 18 18 9z m-974 -14 c0 -5 -5 -10 -11 -10 -5 0 -7 5
-4 10 3 6 8 10 11 10 2 0 4 -4 4 -10z m1440 0 c0 -5 -4 -10 -10 -10 -5 0 -10
5 -10 10 0 6 5 10 10 10 6 0 10 -4 10 -10z m93 -7 c-4 -11 -3 -14 5 -9 8 5 12
-2 12 -19 0 -22 -3 -25 -21 -20 -18 6 -20 4 -15 -13 6 -16 3 -19 -12 -15 -14
3 -18 11 -15 24 3 10 9 19 14 19 5 0 9 8 9 18 0 20 8 32 21 32 5 0 5 -7 2 -17z
m945 0 c-2 -10 -14 -20 -28 -22 -25 -3 -25 -3 -6 18 23 26 39 27 34 4z m78
-42 c-12 -19 -33 -12 -40 12 -12 46 -7 52 20 25 15 -14 23 -31 20 -37z m-2436
29 c0 -5 -5 -10 -11 -10 -5 0 -7 5 -4 10 3 6 8 10 11 10 2 0 4 -4 4 -10z m730
0 c0 -5 -4 -10 -10 -10 -5 0 -10 5 -10 10 0 6 5 10 10 10 6 0 10 -4 10 -10z
m635 0 c-3 -5 -10 -10 -16 -10 -5 0 -9 5 -9 10 0 6 7 10 16 10 8 0 12 -4 9
-10z m-1506 -22 c-16 -32 -15 -31 -39 -18 -17 9 -21 9 -15 0 11 -17 -15 -60
-37 -60 -10 0 -18 -4 -18 -10 0 -5 -9 -10 -21 -10 -28 0 -19 23 12 30 22 6 21
7 -10 13 -33 7 -34 8 -16 27 14 15 22 17 37 9 16 -8 24 -7 41 9 19 17 39 26
70 31 4 0 2 -9 -4 -21z m111 12 c0 -5 -2 -10 -4 -10 -3 0 -8 5 -11 10 -3 6 -1
10 4 10 6 0 11 -4 11 -10z m520 0 c0 -5 -4 -10 -9 -10 -6 0 -13 5 -16 10 -3 6
1 10 9 10 9 0 16 -4 16 -10z m810 0 c0 -5 -4 -10 -9 -10 -6 0 -13 5 -16 10 -3
6 1 10 9 10 9 0 16 -4 16 -10z m-840 -15 c10 -12 10 -15 -4 -15 -9 0 -16 7
-16 15 0 8 2 15 4 15 2 0 9 -7 16 -15z m-1459 -28 c-8 -8 -11 -7 -11 4 0 20
13 34 18 19 3 -7 -1 -17 -7 -23z m3619 23 c0 -5 -4 -10 -10 -10 -5 0 -10 5
-10 10 0 6 5 10 10 10 6 0 10 -4 10 -10z m-2978 -20 c18 0 19 -2 7 -16 -12
-14 -14 -14 -26 2 -7 10 -13 12 -13 6 0 -7 -7 -12 -15 -12 -8 0 -15 5 -15 10
0 6 7 10 15 10 8 0 15 6 16 13 0 10 2 10 6 0 2 -7 14 -13 25 -13z m879 10 c13
0 -2 -33 -29 -60 l-25 -25 8 25 c5 14 8 36 7 49 -2 17 2 22 14 17 9 -3 20 -6
25 -6z m639 6 c0 -3 -4 -8 -10 -11 -5 -3 -10 -1 -10 4 0 6 5 11 10 11 6 0 10
-2 10 -4z m176 -23 c-10 -10 -19 5 -10 18 6 11 8 11 12 0 2 -7 1 -15 -2 -18z
m1164 12 c0 -8 -4 -15 -8 -15 -5 0 -9 7 -9 15 0 8 4 15 9 15 4 0 8 -7 8 -15z
m75 6 c3 -5 1 -12 -5 -16 -5 -3 -10 1 -10 9 0 18 6 21 15 7z m95 -1 c0 -5 -4
-10 -10 -10 -5 0 -10 5 -10 10 0 6 5 10 10 10 6 0 10 -4 10 -10z m-3555 -10
c3 -5 1 -10 -4 -10 -6 0 -11 5 -11 10 0 6 2 10 4 10 3 0 8 -4 11 -10z m271
-15 c-1 -18 -7 -25 -22 -25 -32 0 -37 13 -12 32 31 24 36 22 34 -7z m2274 21
c0 -3 -4 -8 -10 -11 -5 -3 -10 -1 -10 4 0 6 5 11 10 11 6 0 10 -2 10 -4z
m-2510 -16 c0 -5 -4 -10 -10 -10 -5 0 -10 5 -10 10 0 6 5 10 10 10 6 0 10 -4
10 -10z m1465 -1 c9 -13 7 -15 -34 -23 -34 -6 -34 -6 -16 14 20 22 40 26 50 9z
m1290 1 c3 -5 1 -10 -4 -10 -6 0 -11 5 -11 10 0 6 2 10 4 10 3 0 8 -4 11 -10z
m525 6 c0 -2 -7 -6 -15 -10 -8 -3 -15 -1 -15 4 0 6 7 10 15 10 8 0 15 -2 15
-4z m-2550 -43 c0 -18 -24 -43 -42 -43 -7 -1 -26 -6 -42 -13 -28 -12 -28 -13
-11 -30 21 -22 12 -35 -11 -17 -12 11 -20 11 -35 2 -22 -14 -39 -8 -39 14 0 8
9 14 20 14 11 0 19 5 18 12 -2 6 15 19 38 27 27 11 39 21 36 30 -3 10 0 12 12
8 10 -4 19 -1 22 8 7 17 34 8 34 -12z m800 17 c0 -5 -5 -10 -11 -10 -5 0 -7 5
-4 10 3 6 8 10 11 10 2 0 4 -4 4 -10z m990 0 c0 -5 -4 -10 -10 -10 -5 0 -10 5
-10 10 0 6 5 10 10 10 6 0 10 -4 10 -10z m-1033 -22 c-3 -8 -6 -5 -6 6 -1 11
2 17 5 13 3 -3 4 -12 1 -19z m518 -17 c-10 -16 -25 -3 -25 22 0 20 1 20 16 5
9 -9 13 -21 9 -27z m719 20 c3 -5 -1 -14 -9 -21 -13 -10 -15 -9 -15 9 0 21 14
28 24 12z m-1274 -5 c0 -11 -19 -15 -25 -6 -3 5 1 10 9 10 9 0 16 -2 16 -4z
m700 0 c0 -3 -4 -8 -10 -11 -5 -3 -10 -1 -10 4 0 6 5 11 10 11 6 0 10 -2 10
-4z m-2011 -19 c13 -17 5 -27 -17 -20 -15 4 -15 3 -2 -6 8 -6 23 -11 33 -11 9
0 26 -9 38 -21 l20 -20 36 27 c34 26 36 26 31 6 -4 -14 -1 -23 11 -26 12 -3
11 -5 -4 -4 -33 1 -36 -1 -26 -19 8 -16 2 -18 -65 -21 -69 -3 -92 6 -64 23 8
5 8 11 1 19 -6 7 -8 16 -4 19 3 4 1 7 -5 7 -7 0 -12 -4 -12 -10 0 -5 -12 -10
-27 -10 -21 0 -24 3 -15 12 17 17 15 28 -5 28 -11 1 -5 8 17 19 44 24 45 24
59 8z m1267 1 c-1 -7 -6 -20 -11 -28 -9 -14 -11 -19 -14 -39 -2 -14 -41 -21
-41 -7 0 6 11 28 25 49 26 37 45 48 41 25z m1224 3 c0 -12 -20 -25 -27 -18 -7
7 6 27 18 27 5 0 9 -4 9 -9z m440 -1 c0 -5 -4 -10 -10 -10 -5 0 -10 5 -10 10
0 6 5 10 10 10 6 0 10 -4 10 -10z m30 0 c0 -5 -4 -10 -10 -10 -5 0 -10 5 -10
10 0 6 5 10 10 10 6 0 10 -4 10 -10z m-2780 -10 c0 -5 -2 -10 -4 -10 -3 0 -8
5 -11 10 -3 6 -1 10 4 10 6 0 11 -4 11 -10z m216 -3 c8 3 14 0 14 -7 0 -7 -8
-10 -20 -7 -10 3 -21 0 -23 -7 -2 -6 -8 -8 -12 -4 -4 4 -2 15 6 24 7 9 15 12
17 6 2 -6 10 -8 18 -5z m1359 4 c3 -5 1 -12 -5 -16 -5 -3 -10 1 -10 9 0 18 6
21 15 7z m165 -10 c0 -4 -13 -8 -30 -8 -28 0 -37 7 -25 19 8 7 55 -3 55 -11z
m1460 15 c0 -3 -4 -8 -10 -11 -5 -3 -10 -1 -10 4 0 6 5 11 10 11 6 0 10 -2 10
-4z m-3495 -16 c3 -5 1 -10 -4 -10 -6 0 -11 5 -11 10 0 6 2 10 4 10 3 0 8 -4
11 -10z m919 -14 c-7 -17 -34 -23 -34 -6 0 9 32 31 38 26 1 -2 0 -11 -4 -20z
m2336 -2 c0 -12 19 -19 43 -15 4 0 7 -3 7 -9 0 -12 -2 -12 -34 0 -17 6 -26 6
-26 0 0 -6 -9 -10 -21 -10 -12 0 -19 5 -16 13 2 6 12 11 21 9 15 -3 16 0 6 17
-9 17 -8 20 5 15 8 -4 15 -12 15 -20z m-576 10 c25 -9 20 -44 -5 -44 -12 0
-28 -8 -35 -17 -12 -16 -15 -16 -24 -3 -8 12 -10 11 -10 -7 0 -13 -4 -23 -10
-23 -5 0 -10 11 -10 25 0 14 5 25 10 25 6 0 10 7 10 15 0 9 9 15 25 15 14 0
25 5 25 10 0 12 3 12 24 4z m1125 -16 c-1 -13 2 -32 6 -43 8 -20 8 -20 -13 -1
-25 22 -27 37 -10 54 16 16 18 15 17 -10z m-3095 -19 c-7 -11 -15 -11 -34 1
-13 9 -13 11 0 19 16 11 43 -5 34 -20z m606 17 c0 -23 -20 -29 -48 -15 l-25
14 29 6 c16 4 32 7 37 8 4 0 7 -5 7 -13z m1460 -27 c0 -19 -5 -29 -15 -29 -9
0 -18 -7 -21 -15 -4 -8 -12 -15 -20 -15 -7 0 -17 -12 -20 -26 -5 -17 -10 -22
-17 -15 -7 7 -6 15 3 26 7 8 10 15 7 15 -3 0 9 15 25 33 25 26 28 33 14 35
-16 3 -21 14 -11 24 3 3 17 3 30 0 20 -3 25 -10 25 -33z m-1930 15 c0 -8 -5
-12 -10 -9 -6 4 -8 11 -5 16 9 14 15 11 15 -7z m1710 1 c0 -8 -2 -15 -4 -15
-2 0 -6 7 -10 15 -3 8 -1 15 4 15 6 0 10 -7 10 -15z m542 -49 c-12 -10 -26
-16 -29 -12 -4 3 -2 6 4 6 6 0 13 9 16 20 3 11 0 20 -6 20 -6 0 -2 6 9 14 17
13 20 12 25 -7 3 -15 -2 -28 -19 -41z m-863 45 c19 -12 26 -61 9 -61 -17 0
-48 36 -48 55 0 17 18 19 39 6z m1506 -1 c-3 -5 -10 -10 -16 -10 -5 0 -9 5 -9
10 0 6 7 10 16 10 8 0 12 -4 9 -10z m-3781 -15 c-4 -8 -11 -12 -16 -9 -6 4 -5
10 3 15 19 12 19 11 13 -6z m820 9 c16 -6 23 -44 8 -44 -12 0 -41 38 -35 44 8
7 8 7 27 0z m691 -4 c-3 -5 -11 -10 -16 -10 -6 0 -7 5 -4 10 3 6 11 10 16 10
6 0 7 -4 4 -10z m-1700 -10 c10 -16 -16 -43 -28 -31 -11 11 -2 41 12 41 5 0
13 -5 16 -10z m2235 -16 c0 -16 -9 -18 -30 -4 -13 9 -13 11 0 19 17 12 30 5
30 -15z m-1580 5 c0 -5 -4 -7 -10 -4 -5 3 -10 -1 -10 -10 0 -11 -7 -15 -22
-13 -29 4 -26 21 4 30 34 9 38 9 38 -3z m1000 7 c0 -3 -4 -8 -10 -11 -5 -3
-10 -1 -10 4 0 6 5 11 10 11 6 0 10 -2 10 -4z m752 -11 c0 -5 -5 -11 -11 -13
-6 -2 -11 4 -11 13 0 9 5 15 11 13 6 -2 11 -8 11 -13z m-2102 -5 c0 -5 -4 -10
-10 -10 -5 0 -10 5 -10 10 0 6 5 10 10 10 6 0 10 -4 10 -10z m1797 -12 c-3 -8
-6 -5 -6 6 -1 11 2 17 5 13 3 -3 4 -12 1 -19z m-1857 -19 c0 -17 -4 -28 -10
-24 -5 3 -10 17 -10 31 0 13 5 24 10 24 6 0 10 -14 10 -31z m-160 11 c0 -5 -4
-10 -10 -10 -5 0 -10 5 -10 10 0 6 5 10 10 10 6 0 10 -4 10 -10z m1449 -4 c9
-10 8 -15 -3 -19 -8 -3 -17 -1 -20 6 -3 9 -8 8 -15 -3 -12 -17 -14 -10 -5 14
8 20 28 21 43 2z m81 0 c0 -16 -37 -32 -48 -21 -7 7 25 35 40 35 4 0 8 -6 8
-14z m936 0 c23 -24 -3 -29 -28 -7 -19 18 -20 21 -4 21 10 0 24 -6 32 -14z
m-2626 -6 c0 -5 -5 -10 -11 -10 -5 0 -7 5 -4 10 3 6 8 10 11 10 2 0 4 -4 4
-10z m377 -26 c-1 -32 -2 -34 -14 -18 -16 22 -17 41 0 47 6 3 13 6 14 6 0 1 1
-15 0 -35z m509 30 c15 -4 20 -11 17 -25 -3 -10 -9 -19 -13 -19 -4 0 -7 -8 -6
-17 1 -14 -7 -18 -38 -18 -23 0 -41 -5 -43 -12 -6 -18 -23 -16 -23 2 0 7 8 19
18 24 9 6 11 11 5 11 -17 0 -11 39 8 51 16 10 45 11 75 3z m-829 -22 c8 -15 7
-23 -7 -43 -10 -13 -22 -21 -26 -17 -4 4 -1 14 6 23 7 8 10 24 7 35 -6 25 4
26 20 2z m1277 3 c3 -9 -1 -18 -10 -22 -19 -7 -28 2 -21 22 8 19 23 19 31 0z
m1341 5 c3 -5 -1 -10 -9 -10 -9 0 -16 5 -16 10 0 6 4 10 9 10 6 0 13 -4 16
-10z m505 -23 c-1 -21 -1 -21 -15 -3 -8 10 -12 23 -9 28 9 14 24 -2 24 -25z
m820 19 c0 -8 -6 -16 -12 -19 -18 -5 -48 4 -48 15 0 5 5 6 10 3 6 -3 10 -1 10
4 0 6 9 11 20 11 11 0 20 -6 20 -14z m-3719 -9 c-6 -8 -9 -17 -6 -21 3 -3 0
-2 -6 3 -12 10 -4 31 13 31 7 0 7 -4 -1 -13z m349 -2 c10 -12 10 -15 -4 -15
-9 0 -16 7 -16 15 0 8 2 15 4 15 2 0 9 -7 16 -15z m1746 -2 c13 -17 13 -17 14
0 0 20 26 23 33 3 5 -12 16 -13 87 -5 39 5 47 -1 42 -28 -4 -21 -2 -25 12 -20
9 4 16 2 16 -2 0 -11 -26 -21 -53 -20 -12 0 -16 3 -9 6 18 7 4 23 -21 23 -13
0 -26 -9 -32 -22 -15 -35 -40 -34 -55 2 -12 29 -30 41 -30 20 0 -5 -11 -12
-25 -16 -14 -3 -22 -10 -19 -15 3 -5 -1 -9 -9 -9 -8 0 -17 -7 -21 -15 -3 -8
-14 -15 -25 -15 -23 0 -37 -16 -19 -23 9 -3 8 -7 -4 -12 -20 -8 -70 14 -76 34
-3 10 1 12 17 8 11 -3 19 -1 15 4 -3 5 -1 9 5 9 6 0 8 6 5 13 -2 7 7 24 21 37
14 13 25 29 25 37 0 15 16 17 25 3 4 -6 16 -5 33 5 34 18 32 18 48 -2z m-2206
3 c0 -3 -4 -8 -10 -11 -5 -3 -10 -1 -10 4 0 6 5 11 10 11 6 0 10 -2 10 -4z
m-55 -16 c3 -5 2 -10 -4 -10 -5 0 -13 5 -16 10 -3 6 -2 10 4 10 5 0 13 -4 16
-10z m595 0 c0 -5 -11 -10 -25 -10 -14 0 -25 5 -25 10 0 6 11 10 25 10 14 0
25 -4 25 -10z m260 4 c0 -3 -7 -12 -15 -21 -20 -19 -32 -10 -14 11 14 15 29
21 29 10z m780 -4 c0 -5 -7 -10 -15 -10 -8 0 -15 5 -15 10 0 6 7 10 15 10 8 0
15 -4 15 -10z m50 3 c-1 -10 -36 -53 -44 -53 -12 0 -6 24 11 42 16 18 33 24
33 11z m55 -13 c3 -5 1 -10 -4 -10 -6 0 -11 5 -11 10 0 6 2 10 4 10 3 0 8 -4
11 -10z m285 -5 c21 -25 1 -31 -22 -7 -18 18 -19 22 -6 22 8 0 21 -7 28 -15z
m-1875 -5 c3 -5 1 -10 -4 -10 -6 0 -11 5 -11 10 0 6 2 10 4 10 3 0 8 -4 11
-10z m37 -23 c-7 -8 -8 -17 -4 -22 4 -4 1 -6 -7 -3 -21 6 -26 28 -7 28 10 0
13 6 9 18 -5 14 -3 15 7 5 10 -9 10 -15 2 -26z m1707 -29 c-9 -16 -9 -23 0
-26 6 -2 11 -8 11 -14 0 -6 -7 -8 -15 -4 -8 3 -15 1 -15 -4 0 -6 5 -10 11 -10
5 0 7 -4 4 -10 -8 -13 -42 -13 -47 0 -2 6 -9 1 -16 -10 -11 -18 -10 -20 15
-20 l28 0 -25 -20 c-33 -26 -53 -26 -45 0 6 18 2 20 -32 21 -21 0 -32 3 -25 6
6 2 12 10 12 17 0 6 15 26 33 43 24 22 38 29 48 22 23 -14 31 -10 24 12 -5 14
0 26 17 41 l23 20 3 -21 c2 -11 -2 -30 -9 -43z m871 52 c0 -5 -7 -7 -15 -4 -8
4 -15 8 -15 10 0 2 7 4 15 4 8 0 15 -4 15 -10z m560 -8 c0 -11 -9 -27 -20 -37
-11 -10 -20 -13 -20 -7 0 7 -9 12 -20 12 -11 0 -20 5 -20 10 0 6 5 10 11 10 6
0 17 7 25 15 21 21 44 19 44 -3z m550 8 c0 -5 -4 -10 -10 -10 -5 0 -10 5 -10
10 0 6 5 10 10 10 6 0 10 -4 10 -10z m-357 -20 c23 -27 23 -62 0 -53 -29 11
-53 46 -41 61 14 17 21 15 41 -8z m208 10 c5 0 9 -5 9 -11 0 -5 -6 -7 -12 -3
-9 5 -9 2 1 -9 7 -9 9 -17 3 -17 -5 0 -12 -9 -15 -21 -3 -12 -10 -18 -16 -14
-7 4 -11 -4 -11 -19 0 -14 2 -26 5 -26 12 0 41 37 37 48 -5 15 1 15 33 0 14
-6 25 -17 25 -24 0 -19 -21 -29 -30 -14 -6 10 -9 9 -15 -1 -5 -8 2 -20 20 -35
25 -20 27 -24 12 -30 -9 -3 -17 -12 -17 -20 0 -8 -4 -14 -10 -14 -5 0 -10 4
-10 10 0 5 -7 7 -15 4 -10 -4 -15 0 -15 12 0 15 -2 16 -9 5 -8 -12 -12 -12
-26 3 -14 14 -15 19 -3 33 9 12 9 15 1 9 -8 -4 -13 -2 -13 8 0 15 -35 17 -57
3 -7 -4 -23 -5 -37 -1 -23 5 -24 8 -14 28 7 11 11 29 9 39 -1 10 4 17 14 17
11 0 15 -5 11 -15 -3 -9 20 2 52 24 31 22 63 38 70 36 8 -3 18 -5 23 -5z
m-3446 -20 c0 -22 -29 -18 -33 3 -3 14 1 18 15 15 10 -2 18 -10 18 -18z m65 0
c0 -4 -9 -6 -21 -3 -15 4 -17 8 -8 14 14 8 29 3 29 -11z m146 4 c-10 -9 -25
-12 -45 -8 -45 9 -38 21 14 22 38 0 43 -2 31 -14z m64 6 c0 -5 -7 -10 -16 -10
-8 0 -12 5 -9 10 3 6 10 10 16 10 5 0 9 -4 9 -10z m590 -16 c0 -8 -4 -12 -10
-9 -5 3 -10 10 -10 16 0 5 5 9 10 9 6 0 10 -7 10 -16z m90 6 c0 -5 -4 -10 -10
-10 -5 0 -10 5 -10 10 0 6 5 10 10 10 6 0 10 -4 10 -10z m130 -11 c0 -17 -4
-20 -23 -15 -16 4 -26 -1 -35 -15 -8 -13 -19 -18 -29 -14 -9 3 -19 1 -22 -4
-4 -6 -12 -6 -21 -1 -21 13 6 41 34 34 14 -3 31 2 47 15 31 26 49 26 49 0z
m1425 11 c3 -5 1 -10 -4 -10 -6 0 -11 5 -11 10 0 6 2 10 4 10 3 0 8 -4 11 -10z
m71 -1 c3 -6 2 -15 -4 -21 -6 -6 -11 -2 -15 11 -5 22 7 29 19 10z m1289 1 c3
-5 2 -10 -4 -10 -5 0 -13 5 -16 10 -3 6 -2 10 4 10 5 0 13 -4 16 -10z m-2179
-15 c-16 -12 -17 -17 -6 -30 11 -13 9 -15 -14 -15 -14 0 -26 5 -26 12 0 16 32
47 50 47 11 0 10 -3 -4 -14z m2074 5 c0 -5 -4 -10 -10 -10 -5 0 -10 5 -10 10
0 6 5 10 10 10 6 0 10 -4 10 -10z m70 0 c8 -5 11 -12 8 -16 -4 -3 -14 1 -23
10 -18 17 -9 21 15 6z m-3976 -6 c14 -5 12 -10 -10 -31 -14 -13 -29 -21 -33
-17 -3 4 0 9 7 11 6 3 12 13 12 24 0 21 1 22 24 13z m2246 -4 c0 -5 -2 -10 -4
-10 -3 0 -8 5 -11 10 -3 6 -1 10 4 10 6 0 11 -4 11 -10z m-2434 -27 c-10 -10
-19 5 -10 18 6 11 8 11 12 0 2 -7 1 -15 -2 -18z m2329 18 c10 -17 -45 -62 -66
-56 -25 8 -25 35 1 35 11 0 20 7 20 15 0 16 35 21 45 6z m215 -7 c0 -8 -4 -12
-10 -9 -5 3 -10 10 -10 16 0 5 5 9 10 9 6 0 10 -7 10 -16z m1746 5 c5 -8 -1
-10 -19 -7 -14 3 -25 1 -24 -5 1 -5 -6 -11 -15 -12 -22 -4 -22 -1 -2 19 18 19
50 21 60 5z m-4168 -11 c18 -2 9 -22 -12 -26 -18 -4 -46 14 -46 30 0 6 10 7
23 3 12 -3 28 -7 35 -7z m3902 -3 c0 -8 -4 -15 -10 -15 -5 0 -10 7 -10 15 0 8
5 15 10 15 6 0 10 -7 10 -15z m-3350 -5 c0 -5 -4 -10 -10 -10 -5 0 -10 5 -10
10 0 6 5 10 10 10 6 0 10 -4 10 -10z m768 -12 c-5 -15 -23 -11 -26 6 -2 11 2
14 13 10 9 -4 14 -11 13 -16z m1002 7 c14 -16 10 -18 -14 -9 -9 3 -16 10 -16
15 0 14 16 11 30 -6z m1680 -16 c0 -5 -11 -9 -25 -9 -27 0 -32 9 -13 28 12 12
38 -1 38 -19z m-4146 12 c3 -5 -1 -14 -9 -21 -13 -10 -15 -9 -15 9 0 21 14 28
24 12z m2101 -1 c4 -6 11 -8 16 -5 5 4 9 1 9 -4 0 -6 -4 -11 -10 -11 -5 0 -10
-6 -10 -14 0 -9 -8 -12 -25 -8 -15 2 -25 0 -25 -7 0 -6 -7 -11 -15 -11 -21 0
-19 7 13 40 30 32 38 35 47 20z m675 -5 c-10 -12 -10 -15 3 -15 8 0 18 6 21
13 5 10 7 10 12 0 3 -7 14 -13 25 -13 13 0 19 -7 19 -21 0 -11 -4 -17 -10 -14
-5 3 -10 1 -10 -5 0 -16 30 -24 43 -11 16 16 37 14 31 -4 -4 -9 0 -15 10 -15
9 0 16 -4 16 -10 0 -10 -14 -14 -38 -11 -7 1 -11 -4 -10 -11 2 -7 -3 -12 -10
-10 -8 1 -16 -7 -19 -18 -3 -11 -9 -17 -14 -14 -5 3 -6 10 -3 16 5 8 1 9 -9 5
-10 -4 -23 -9 -29 -12 -7 -2 -24 4 -36 15 -20 16 -21 22 -10 32 15 15 37 16
56 5 20 -13 14 -2 -17 30 -39 41 -52 44 -75 16 -17 -22 -17 -25 -2 -42 9 -10
16 -23 16 -29 0 -7 7 -12 15 -12 8 0 15 -5 15 -11 0 -7 -10 -9 -24 -5 -14 3
-36 1 -50 -6 -35 -15 -85 5 -66 27 14 16 34 10 24 -7 -4 -7 -2 -8 4 -4 7 4 12
16 12 27 0 10 5 19 10 19 6 0 10 7 10 15 0 8 9 24 20 35 11 11 20 23 20 26 0
10 34 33 49 34 11 0 11 -3 1 -15z m1560 -5 c0 -19 -20 -27 -33 -13 -8 7 11 33
24 33 5 0 9 -9 9 -20z m50 -1 c0 -5 -4 -9 -10 -9 -5 0 -10 7 -10 16 0 8 5 12
10 9 6 -3 10 -10 10 -16z m-4025 1 c3 -5 1 -10 -4 -10 -6 0 -11 5 -11 10 0 6
2 10 4 10 3 0 8 -4 11 -10z m772 -7 c2 -6 -5 -13 -17 -16 -22 -6 -23 -5 -14
18 7 17 25 16 31 -2z m1381 4 c16 -19 9 -78 -11 -91 -13 -8 -20 -8 -26 3 -7
11 -9 11 -14 0 -4 -12 -7 -11 -16 1 -15 21 -14 30 4 30 8 0 15 9 15 20 0 11 7
20 15 20 9 0 12 6 9 15 -7 18 10 20 24 2z m-1634 -19 c-9 -30 -10 -31 -24 -23
-8 5 -6 13 7 25 24 25 26 24 17 -2z m-764 -4 c0 -8 -5 -12 -10 -9 -6 4 -8 11
-5 16 9 14 15 11 15 -7z m660 9 c0 -10 -20 -40 -20 -31 0 3 -3 13 -6 22 -4 11
-1 16 10 16 9 0 16 -3 16 -7z m1480 -2 c0 -5 -6 -16 -13 -23 -7 -7 -16 -21
-20 -30 -3 -10 -13 -18 -22 -18 -26 0 -14 31 18 43 9 3 17 13 17 22 0 8 5 15
10 15 6 0 10 -4 10 -9z m-2415 -11 c-3 -5 -11 -10 -16 -10 -6 0 -7 5 -4 10 3
6 11 10 16 10 6 0 7 -4 4 -10z m981 -17 c-10 -10 -19 5 -10 18 6 11 8 11 12 0
2 -7 1 -15 -2 -18z m844 17 c0 -5 -4 -10 -10 -10 -5 0 -10 5 -10 10 0 6 5 10
10 10 6 0 10 -4 10 -10z m480 0 c0 -5 -4 -10 -10 -10 -5 0 -10 5 -10 10 0 6 5
10 10 10 6 0 10 -4 10 -10z m204 1 c8 -13 -5 -71 -15 -71 -5 0 -9 7 -9 15 0 8
-7 15 -15 15 -19 0 -19 14 1 34 17 18 30 20 38 7z m916 -1 c0 -5 -4 -10 -10
-10 -5 0 -10 5 -10 10 0 6 5 10 10 10 6 0 10 -4 10 -10z m183 -5 c-4 -15 -36
-12 -41 3 -3 9 3 13 19 10 13 -1 23 -7 22 -13z m-3128 -9 c19 -8 35 -20 35
-25 0 -17 45 -13 85 6 26 12 38 14 43 6 4 -6 20 -15 36 -19 21 -5 27 -4 22 5
-4 6 -3 11 2 11 5 0 10 -22 11 -50 1 -52 -5 -58 -40 -40 -11 6 -19 21 -19 36
l0 26 -19 -23 c-12 -15 -15 -26 -9 -30 16 -10 -9 -21 -32 -14 -14 4 -20 2 -20
-8 0 -16 -41 -31 -50 -18 -3 4 -17 10 -32 13 -20 4 -28 1 -28 -9 0 -8 -4 -11
-10 -8 -5 3 -10 1 -10 -4 0 -6 5 -11 12 -11 6 0 2 -9 -9 -20 -12 -10 -31 -17
-42 -15 -11 2 -23 0 -26 -6 -10 -15 -28 -10 -21 6 3 9 0 15 -9 15 -23 0 -18
16 10 34 14 9 23 21 19 27 -4 7 -10 6 -19 -1 -9 -8 -14 -6 -19 6 -10 26 -7 31
24 44 32 13 55 5 30 -10 -9 -6 -10 -10 -3 -10 6 0 15 -9 18 -20 9 -28 25 -25
25 6 0 14 -4 23 -10 19 -5 -3 -10 3 -10 14 0 12 -7 21 -15 21 -8 0 -15 5 -15
10 0 6 4 10 10 10 5 0 6 7 3 17 -4 10 -2 14 5 9 6 -3 13 -2 17 4 8 13 19 13
60 -4z m345 10 c0 -3 -4 -8 -10 -11 -5 -3 -10 -1 -10 4 0 6 5 11 10 11 6 0 10
-2 10 -4z m1520 0 c0 -3 -4 -8 -10 -11 -5 -3 -10 -1 -10 4 0 6 5 11 10 11 6 0
10 -2 10 -4z m240 -17 c0 -18 -2 -19 -15 -5 -8 8 -15 17 -15 20 0 3 7 6 15 6
9 0 15 -9 15 -21z m1740 -5 c0 -8 -4 -14 -10 -14 -5 0 -10 9 -10 21 0 11 5 17
10 14 6 -3 10 -13 10 -21z m-4405 6 c-3 -5 -13 -10 -21 -10 -8 0 -14 5 -14 10
0 6 9 10 21 10 11 0 17 -4 14 -10z m185 0 c0 -5 -4 -10 -10 -10 -5 0 -10 5
-10 10 0 6 5 10 10 10 6 0 10 -4 10 -10z m760 0 c0 -5 -4 -10 -10 -10 -5 0
-10 5 -10 10 0 6 5 10 10 10 6 0 10 -4 10 -10z m870 0 c0 -5 -4 -10 -10 -10
-5 0 -10 5 -10 10 0 6 5 10 10 10 6 0 10 -4 10 -10z m519 1 c8 -5 11 -16 6
-30 -4 -14 -2 -21 6 -21 10 0 10 -3 2 -11 -6 -6 -9 -17 -7 -24 4 -9 -9 -13
-44 -13 -28 0 -56 -3 -64 -8 -7 -5 -19 -9 -27 -11 -34 -5 -39 -43 -5 -43 8 0
14 -9 14 -20 0 -11 3 -20 6 -20 3 0 17 9 31 20 19 15 21 20 9 20 -17 0 -22 15
-7 25 10 6 41 -21 41 -36 0 -5 -6 -9 -12 -10 -7 -1 -2 -4 12 -9 23 -7 24 -8 5
-14 -36 -13 -50 -24 -47 -36 3 -14 -16 -40 -29 -40 -5 0 -9 8 -9 17 0 13 -3
14 -11 6 -6 -6 -9 -22 -6 -35 5 -19 13 -24 42 -25 32 -1 37 2 42 28 6 30 23
41 23 15 0 -8 9 -18 20 -21 11 -4 18 -11 15 -16 -8 -13 22 -11 62 3 48 17 63
-1 28 -36 -19 -19 -32 -25 -49 -20 -21 5 -23 3 -19 -20 7 -35 -19 -35 -44 0
-17 23 -22 25 -42 14 -15 -8 -21 -18 -18 -31 3 -10 1 -22 -4 -25 -19 -11 -8
-20 20 -16 24 3 33 -1 47 -24 10 -16 19 -31 21 -33 4 -5 54 28 84 56 15 14 29
21 32 16 9 -14 -4 -54 -15 -47 -14 9 -38 -15 -31 -32 3 -8 11 -14 19 -14 8 0
14 -7 14 -15 0 -13 -4 -14 -22 -4 -21 11 -22 11 -10 -4 11 -13 10 -22 -10 -56
-23 -42 -43 -50 -77 -31 -23 12 -51 79 -51 120 0 23 -5 30 -19 30 -11 0 -21
-5 -23 -11 -6 -19 -58 3 -76 33 -15 25 -15 28 1 46 9 10 17 25 17 33 0 8 4 19
10 25 13 13 -9 93 -32 116 -10 10 -18 28 -18 40 0 12 -7 30 -17 40 -9 10 -11
18 -5 18 6 0 9 7 5 16 -4 12 0 14 21 8 20 -5 26 -2 26 10 0 9 7 16 16 16 8 0
12 5 9 11 -6 9 38 59 52 59 3 0 3 -13 0 -29 -7 -33 10 -46 31 -25 10 10 10 18
2 35 -7 11 -9 23 -6 27 3 3 6 0 6 -6 0 -15 37 -16 46 -1 3 6 0 15 -7 20 -8 5
-9 9 -4 9 6 0 16 -4 24 -9z m2141 -1 c0 -5 -4 -10 -10 -10 -5 0 -10 5 -10 10
0 6 5 10 10 10 6 0 10 -4 10 -10z m-4430 -11 c0 -5 -4 -7 -10 -4 -6 3 -7 -1
-4 -9 4 -11 0 -16 -10 -16 -16 0 -22 21 -9 33 10 11 33 8 33 -4z m2160 1 c0
-5 -4 -10 -10 -10 -5 0 -10 5 -10 10 0 6 5 10 10 10 6 0 10 -4 10 -10z m1310
-11 c0 -5 -4 -9 -10 -9 -5 0 -10 7 -10 16 0 8 5 12 10 9 6 -3 10 -10 10 -16z
m1049 0 c-16 -10 -23 -4 -14 10 3 6 11 8 17 5 6 -4 5 -9 -3 -15z m-2483 -65
c-9 -6 -16 -19 -16 -28 0 -9 -5 -16 -11 -16 -11 0 -3 37 13 57 5 7 7 16 4 22
-3 5 -3 17 1 27 5 15 9 12 16 -16 7 -27 5 -37 -7 -46z m-2176 50 c0 -8 -4 -12
-10 -9 -5 3 -10 10 -10 16 0 5 5 9 10 9 6 0 10 -7 10 -16z m64 1 c19 -14 19
-15 -7 -15 -17 0 -27 5 -27 15 0 19 9 19 34 0z m286 6 c0 -6 -4 -13 -10 -16
-5 -3 -10 1 -10 9 0 9 5 16 10 16 6 0 10 -4 10 -9z m1020 -1 c0 -5 -7 -10 -15
-10 -8 0 -15 5 -15 10 0 6 7 10 15 10 8 0 15 -4 15 -10z m1131 -13 c-13 -13
-26 -3 -16 12 3 6 11 8 17 5 6 -4 6 -10 -1 -17z m1299 13 c0 -5 -4 -10 -10
-10 -5 0 -10 5 -10 10 0 6 5 10 10 10 6 0 10 -4 10 -10z m155 0 c3 -5 -3 -10
-14 -10 -11 0 -23 5 -26 10 -3 6 3 10 14 10 11 0 23 -4 26 -10z m-3687 -23 c2
-11 -3 -17 -17 -17 -25 0 -38 19 -20 31 19 12 33 6 37 -14z m3412 3 c0 -5 -9
-10 -20 -10 -11 0 -20 5 -20 10 0 6 9 10 20 10 11 0 20 -4 20 -10z m-1530 -10
c0 -5 -5 -10 -11 -10 -5 0 -7 5 -4 10 3 6 8 10 11 10 2 0 4 -4 4 -10z m630
-11 c0 -6 -4 -7 -10 -4 -5 3 -10 11 -10 16 0 6 5 7 10 4 6 -3 10 -11 10 -16z
m70 6 c-7 -9 -15 -13 -17 -11 -7 7 7 26 19 26 6 0 6 -6 -2 -15z m1620 11 c0
-3 -4 -8 -10 -11 -5 -3 -10 -1 -10 4 0 6 5 11 10 11 6 0 10 -2 10 -4z m-2240
-15 c0 -6 -4 -13 -10 -16 -5 -3 -10 1 -10 9 0 9 5 16 10 16 6 0 10 -4 10 -9z
m-470 -11 c0 -5 -7 -10 -15 -10 -8 0 -15 5 -15 10 0 6 7 10 15 10 8 0 15 -4
15 -10z m954 -6 c4 -9 4 -19 1 -22 -6 -6 -35 18 -35 29 0 16 28 10 34 -7z
m838 -6 c-7 -7 -12 -8 -12 -2 0 6 3 14 7 17 3 4 9 5 12 2 2 -3 -1 -11 -7 -17z
m525 -10 c0 -36 -20 -36 -52 -2 -14 15 -25 27 -25 28 0 1 17 1 38 1 36 0 39
-2 39 -27z m-3717 12 c0 -5 -4 -10 -10 -10 -5 0 -10 5 -10 10 0 6 5 10 10 10
6 0 10 -4 10 -10z m2497 -12 c-3 -8 -6 -5 -6 6 -1 11 2 17 5 13 3 -3 4 -12 1
-19z m68 12 c3 -5 -1 -10 -9 -10 -9 0 -16 5 -16 10 0 6 4 10 9 10 6 0 13 -4
16 -10z m360 -1 c4 -6 5 -12 3 -14 -7 -7 -48 7 -48 16 0 13 37 11 45 -2z m335
1 c0 -5 -4 -10 -10 -10 -5 0 -10 5 -10 10 0 6 5 10 10 10 6 0 10 -4 10 -10z
m210 -5 c0 -12 -19 -12 -23 0 -4 9 -1 12 9 8 7 -3 14 -7 14 -8z m-3777 -9 c4
-10 1 -13 -9 -9 -15 6 -19 23 -5 23 5 0 11 -7 14 -14z m97 10 c0 -3 -4 -8 -10
-11 -5 -3 -10 -1 -10 4 0 6 5 11 10 11 6 0 10 -2 10 -4z m66 -12 c-3 -9 -6
-18 -6 -20 0 -3 -4 -3 -10 1 -11 7 -2 35 12 35 6 0 7 -7 4 -16z m804 -4 c0 -5
-2 -10 -4 -10 -3 0 -8 5 -11 10 -3 6 -1 10 4 10 6 0 11 -4 11 -10z m1741 -28
c3 -17 3 -29 -2 -27 -4 3 -12 -2 -17 -11 -7 -12 -15 -15 -28 -9 -13 5 -15 9
-6 12 6 3 12 17 12 32 0 52 30 54 41 3z m1675 30 c6 -4 8 -16 4 -26 -7 -20
-12 -16 -23 17 -7 18 1 22 19 9z m204 -2 c0 -5 -5 -10 -11 -10 -5 0 -7 5 -4
10 3 6 8 10 11 10 2 0 4 -4 4 -10z m-416 -15 c4 -10 -1 -15 -14 -15 -16 0 -20
-7 -20 -31 0 -25 3 -29 19 -24 12 3 21 0 25 -10 3 -8 1 -15 -4 -15 -6 0 -10
-9 -10 -20 0 -26 -20 -26 -27 -1 -7 28 -35 36 -50 15 -12 -17 -13 -17 -13 2 0
11 -6 26 -12 32 -25 25 -14 47 32 63 59 21 67 22 74 4z m-3359 -22 l11 -22 37
24 c44 30 47 31 47 4 0 -11 5 -17 10 -14 6 4 10 -7 10 -25 0 -35 19 -47 50
-30 12 6 24 9 27 6 10 -10 -9 -88 -23 -93 -20 -8 -30 5 -16 19 19 19 14 25
-19 25 -17 0 -34 5 -38 12 -4 7 -12 11 -17 10 -10 -2 -46 11 -54 21 -3 3 -18
14 -35 24 -22 14 -26 15 -17 4 10 -13 10 -17 -4 -22 -23 -9 -24 -8 -24 18 0
13 -6 26 -12 29 -21 6 12 38 36 35 11 -2 25 -13 31 -25z m1614 11 c2 -2 2 -6
-1 -9 -8 -9 -58 6 -58 16 0 8 48 2 59 -7z m61 7 c0 -9 -66 -71 -75 -71 -15 0
-2 30 15 35 15 5 19 12 15 26 -5 15 -1 19 19 19 14 0 26 -4 26 -9z m40 -7 c0
-8 -4 -12 -10 -9 -5 3 -10 10 -10 16 0 5 5 9 10 9 6 0 10 -7 10 -16z m400 6
c0 -5 -5 -10 -11 -10 -5 0 -7 5 -4 10 3 6 8 10 11 10 2 0 4 -4 4 -10z m150 -5
c7 -8 19 -15 26 -15 8 0 14 -7 14 -15 0 -8 6 -12 13 -9 7 2 28 -11 47 -31 32
-33 33 -36 17 -52 -13 -13 -20 -14 -29 -5 -9 9 -9 12 2 12 11 0 10 4 -4 18
-17 16 -18 16 -33 -5 -22 -32 -53 -30 -53 3 0 16 -5 24 -12 21 -17 -6 -58 15
-82 41 -15 18 -16 23 -4 36 17 20 82 20 98 1z m108 -2 c5 -18 -26 -16 -45 3
-15 14 -14 15 12 12 16 -2 30 -9 33 -15z m-2224 -8 c-4 -8 -8 -15 -10 -15 -2
0 -4 7 -4 15 0 8 4 15 10 15 5 0 7 -7 4 -15z m61 5 c-3 -5 -10 -10 -16 -10 -5
0 -9 5 -9 10 0 6 7 10 16 10 8 0 12 -4 9 -10z m1805 0 c0 -5 6 -7 14 -4 7 3
16 -1 19 -9 5 -12 0 -13 -28 -4 -19 5 -32 14 -29 19 7 11 24 10 24 -2z m980
-15 c6 -17 6 -33 -2 -50 -13 -29 -17 -30 -44 -10 -17 13 -17 14 -1 15 13 0 17
8 17 35 0 41 16 46 30 10z m840 10 c0 -8 -2 -15 -4 -15 -2 0 -6 7 -10 15 -3 8
-1 15 4 15 6 0 10 -7 10 -15z m-3358 -10 c0 -5 -5 -11 -11 -13 -6 -2 -11 4
-11 13 0 9 5 15 11 13 6 -2 11 -8 11 -13z m3306 6 c10 -6 10 -10 -1 -20 -17
-14 -47 -4 -47 15 0 15 28 18 48 5z m132 -12 c0 -5 -4 -9 -10 -9 -5 0 -10 7
-10 16 0 8 5 12 10 9 6 -3 10 -10 10 -16z m-3662 -5 c8 -14 14 -15 42 -5 43
15 50 14 50 -4 0 -19 4 -19 41 0 33 17 51 13 42 -10 -4 -11 -1 -13 13 -8 17 6
17 5 5 -10 -7 -9 -20 -17 -27 -17 -8 0 -14 -6 -14 -14 0 -20 -51 -51 -78 -47
-26 3 -42 -27 -21 -40 11 -7 10 -11 -5 -22 -14 -10 -17 -20 -12 -33 8 -18 9
-18 19 4 13 27 37 29 37 2 0 -11 5 -20 10 -20 6 0 10 -4 10 -10 0 -5 -7 -10
-16 -10 -8 0 -13 -4 -10 -9 3 -4 -13 -8 -35 -7 -22 1 -44 7 -48 15 -7 10 -15
10 -42 -4 l-33 -18 17 26 c10 15 13 28 7 32 -12 7 -1 67 14 78 8 5 7 10 -3 16
-11 7 -10 13 7 32 13 13 18 27 13 33 -4 6 -11 23 -15 39 -5 20 -3 27 8 27 8 0
19 -7 24 -16z m1572 6 c0 -9 -14 -14 -32 -11 -14 2 -8 -20 7 -25 8 -4 12 -10
9 -15 -3 -5 0 -9 5 -9 21 0 11 -19 -11 -23 -20 -4 -19 -4 5 -6 29 -1 36 -21
14 -39 -25 -21 -55 -3 -59 35 -2 19 0 37 5 40 5 3 7 16 4 29 -3 15 1 25 12 27
29 8 41 7 41 -3z m1540 0 c0 -5 -7 -10 -15 -10 -8 0 -15 5 -15 10 0 6 7 10 15
10 8 0 15 -4 15 -10z m-3450 -19 c0 -14 -18 -23 -31 -15 -8 4 -7 9 2 15 18 11
29 11 29 0z m1783 2 c-7 -2 -19 -2 -25 0 -7 3 -2 5 12 5 14 0 19 -2 13 -5z
m37 -3 c0 -5 -2 -10 -4 -10 -3 0 -8 5 -11 10 -3 6 -1 10 4 10 6 0 11 -4 11
-10z m290 0 c0 -5 -5 -10 -11 -10 -5 0 -7 5 -4 10 3 6 8 10 11 10 2 0 4 -4 4
-10z m-2825 -20 c3 -5 1 -10 -4 -10 -6 0 -11 5 -11 10 0 6 2 10 4 10 3 0 8 -4
11 -10z m2375 0 c0 -5 -5 -10 -11 -10 -5 0 -7 5 -4 10 3 6 8 10 11 10 2 0 4
-4 4 -10z m90 -16 c0 -8 -7 -17 -15 -20 -20 -8 -19 -24 1 -24 8 0 12 5 9 10
-10 15 5 12 22 -5 8 -9 12 -19 9 -23 -4 -3 -11 0 -15 7 -6 10 -10 10 -16 1 -4
-6 -13 -9 -21 -6 -8 3 -14 -1 -14 -9 0 -8 -9 -15 -20 -15 -11 0 -20 6 -20 14
0 8 -3 16 -7 19 -5 2 -2 2 5 1 15 -4 16 8 1 23 -17 17 -1 33 32 33 16 0 29 5
29 11 0 5 5 7 10 4 6 -3 10 -13 10 -21z m410 14 c0 -17 -18 -44 -24 -37 -8 7
5 49 15 49 5 0 9 -6 9 -12z m94 -3 c3 -8 17 -15 31 -15 14 0 25 -3 25 -6 0
-13 -30 -34 -52 -35 -18 -1 -19 -2 -5 -6 11 -3 16 -10 13 -20 -3 -8 -6 -19 -6
-24 0 -15 -19 -10 -40 11 -24 24 -27 70 -4 70 10 0 14 6 11 14 -6 14 1 26 14
26 4 0 9 -7 13 -15z m-1684 -13 c0 -10 -5 -23 -12 -30 -17 -17 -58 -15 -58 3
0 8 6 15 14 15 7 0 19 7 26 15 17 20 30 19 30 -3z m1370 3 c-7 -9 -15 -13 -17
-11 -7 7 7 26 19 26 6 0 6 -6 -2 -15z m135 5 c3 -5 2 -10 -4 -10 -5 0 -13 5
-16 10 -3 6 -2 10 4 10 5 0 13 -4 16 -10z m1495 6 c0 -3 -4 -8 -10 -11 -5 -3
-10 -1 -10 4 0 6 5 11 10 11 6 0 10 -2 10 -4z m-4354 -33 c-10 -10 -19 5 -10
18 6 11 8 11 12 0 2 -7 1 -15 -2 -18z m269 10 c-2 -10 -4 -21 -4 -25 -2 -21
-19 -5 -17 17 0 14 6 25 13 25 6 0 10 -8 8 -17z m419 4 c6 4 5 -1 -3 -10 -7
-9 -20 -17 -27 -17 -8 0 -14 -4 -14 -10 0 -5 -9 -10 -20 -10 -16 0 -19 4 -12
18 5 9 7 22 5 29 -3 9 4 10 28 3 17 -5 37 -6 43 -3z m1176 3 c0 -5 -4 -10 -10
-10 -5 0 -10 5 -10 10 0 6 5 10 10 10 6 0 10 -4 10 -10z m2430 0 c0 -5 -5 -10
-11 -10 -5 0 -7 5 -4 10 3 6 8 10 11 10 2 0 4 -4 4 -10z m-4360 -9 c0 -6 -4
-13 -10 -16 -5 -3 -10 1 -10 9 0 9 5 16 10 16 6 0 10 -4 10 -9z m2655 -1 c3
-5 1 -10 -4 -10 -6 0 -11 5 -11 10 0 6 2 10 4 10 3 0 8 -4 11 -10z m1436 -30
c4 -19 7 -27 8 -17 2 25 41 23 41 -3 0 -11 -7 -20 -15 -20 -8 0 -18 0 -22 -1
-5 -1 -18 18 -31 41 -21 38 -22 41 -5 38 12 -2 20 -15 24 -38z m-3934 14 c5
-16 -40 -26 -49 -11 -4 7 -8 16 -8 20 0 12 53 4 57 -9z m805 -9 c-5 -29 -9
-30 -34 -8 -26 23 -22 33 11 33 25 0 28 -3 23 -25z m634 -2 c-10 -10 -19 5
-10 18 6 11 8 11 12 0 2 -7 1 -15 -2 -18z m134 19 c0 -12 -39 -46 -45 -41 -6
7 24 49 36 49 5 0 9 -4 9 -8z m2045 -6 c16 -9 41 -12 61 -9 39 6 46 -10 17
-43 -10 -10 -18 -32 -18 -49 0 -26 -5 -31 -49 -48 -27 -9 -51 -16 -53 -13 -3
3 4 18 16 34 12 17 21 35 21 41 0 6 5 11 10 11 6 0 10 7 10 15 0 8 -8 15 -17
15 -14 0 -15 -2 -4 -9 11 -7 9 -11 -8 -20 -11 -7 -21 -19 -21 -29 0 -13 -2
-14 -9 -3 -7 11 -10 10 -18 -4 -7 -12 -17 -15 -32 -10 -28 9 -27 35 2 36 l22
0 -23 10 c-26 10 -25 36 2 31 9 -2 16 2 16 9 0 6 7 9 15 5 10 -3 17 3 21 19 7
29 5 29 39 11z m-3162 -18 c28 -10 37 -18 37 -36 0 -12 -7 -25 -15 -28 -8 -4
-15 -16 -15 -28 -1 -20 -1 -20 -15 -2 -17 22 -45 15 -52 -14 -7 -28 -23 -25
-23 4 0 13 -4 26 -10 28 -6 2 -5 9 1 18 8 11 12 12 16 3 9 -24 23 -13 23 17 0
18 -6 33 -15 36 -20 8 -7 27 14 20 9 -3 33 -11 54 -18z m1407 7 c0 -8 -9 -15
-20 -15 -20 0 -26 11 -13 23 12 13 33 7 33 -8z m226 -17 c-11 -15 -16 -18 -16
-7 0 16 21 42 28 34 2 -2 -3 -14 -12 -27z m1944 22 c0 -5 -2 -10 -4 -10 -3 0
-8 5 -11 10 -3 6 -1 10 4 10 6 0 11 -4 11 -10z m-2670 -10 c0 -5 -4 -10 -10
-10 -5 0 -10 5 -10 10 0 6 5 10 10 10 6 0 10 -4 10 -10z m425 -1 c11 -16 -1
-22 -30 -15 -14 4 -23 11 -20 16 8 13 42 13 50 -1z m-121 -14 c-4 -8 -10 -15
-15 -15 -5 0 -9 7 -9 15 0 8 7 15 15 15 9 0 12 -6 9 -15z m486 5 c0 -5 -4 -10
-10 -10 -5 0 -10 5 -10 10 0 6 5 10 10 10 6 0 10 -4 10 -10z m620 -5 c16 -19
0 -19 -26 0 -16 12 -16 14 -3 15 9 0 22 -7 29 -15z m1470 -6 c0 -6 -4 -7 -10
-4 -5 3 -10 11 -10 16 0 6 5 7 10 4 6 -3 10 -11 10 -16z m-456 -5 c9 -22 8
-24 -9 -24 -8 0 -15 9 -15 20 0 24 15 27 24 4z m-3394 2 c0 -11 -19 -15 -25
-6 -3 5 1 10 9 10 9 0 16 -2 16 -4z m828 -15 c3 -8 0 -11 -7 -7 -6 4 -11 0
-11 -11 0 -16 -1 -16 -16 -1 -9 9 -13 21 -9 28 9 15 37 9 43 -9z m184 -5 c14
-21 9 -38 -9 -31 -10 4 -26 10 -35 12 -10 3 -18 14 -18 24 0 16 5 18 28 13 15
-4 30 -12 34 -18z m1633 15 c3 -5 1 -12 -5 -16 -5 -3 -10 1 -10 9 0 18 6 21
15 7z m125 -1 c0 -5 -4 -10 -10 -10 -5 0 -10 5 -10 10 0 6 5 10 10 10 6 0 10
-4 10 -10z m-2398 -35 c-3 -29 -1 -35 14 -35 18 -1 18 -1 0 -15 -27 -21 -35
-19 -46 10 -11 29 3 75 23 75 9 0 12 -11 9 -35z m1798 -19 c0 -6 -14 -12 -31
-12 -17 -1 -35 -7 -40 -15 -7 -11 -8 -9 -6 6 1 11 7 27 12 35 5 8 10 18 11 23
1 4 2 9 3 12 2 9 51 -38 51 -49z m140 34 c0 -5 -4 -10 -10 -10 -5 0 -10 5 -10
10 0 6 5 10 10 10 6 0 10 -4 10 -10z m1210 6 c0 -3 -4 -8 -10 -11 -5 -3 -10
-1 -10 4 0 6 5 11 10 11 6 0 10 -2 10 -4z m290 -6 c0 -5 -4 -10 -10 -10 -5 0
-10 5 -10 10 0 6 5 10 10 10 6 0 10 -4 10 -10z m-3940 -10 c0 -5 -4 -10 -10
-10 -5 0 -10 5 -10 10 0 6 5 10 10 10 6 0 10 -4 10 -10z m630 1 c0 -15 -38
-20 -44 -5 -4 10 2 14 19 14 14 0 25 -4 25 -9z m790 -3 c0 -5 -10 -8 -21 -6
-15 2 -23 -3 -25 -14 -1 -10 2 -18 8 -18 5 0 8 -6 6 -12 -3 -7 -11 -13 -19
-13 -8 0 -19 -9 -26 -20 -12 -20 -12 -20 -13 2 0 12 -5 23 -12 25 -17 6 0 28
23 28 12 0 19 7 19 19 0 15 7 19 30 19 17 -1 30 -5 30 -10z m1160 2 c0 -5 -2
-10 -4 -10 -3 0 -8 5 -11 10 -3 6 -1 10 4 10 6 0 11 -4 11 -10z m640 0 c0 -5
-4 -10 -10 -10 -5 0 -10 5 -10 10 0 6 5 10 10 10 6 0 10 -4 10 -10z m908 -8
c6 -18 -15 -14 -22 4 -4 10 -1 14 6 12 6 -2 14 -10 16 -16z m-4073 -12 c3 -5
1 -10 -4 -10 -6 0 -11 5 -11 10 0 6 2 10 4 10 3 0 8 -4 11 -10z m1823 -8 c2
-7 -2 -10 -12 -6 -9 3 -16 11 -16 16 0 13 23 5 28 -10z m463 5 c-1 -12 -15 -9
-19 4 -3 6 1 10 8 8 6 -3 11 -8 11 -12z m1709 -2 c0 -8 -4 -15 -10 -15 -5 0
-10 7 -10 15 0 8 5 15 10 15 6 0 10 -7 10 -15z m-2503 -19 c-3 -8 -1 -17 6
-19 7 -3 5 -7 -6 -12 -26 -11 -43 9 -26 29 18 19 33 20 26 2z m946 -11 c-8
-22 -22 -18 -16 5 3 11 9 17 14 15 4 -3 6 -12 2 -20z m147 15 c0 -5 -4 -10
-10 -10 -5 0 -10 5 -10 10 0 6 5 10 10 10 6 0 10 -4 10 -10z m130 -5 c-9 -10
-9 -15 -1 -15 6 0 11 -5 11 -12 0 -6 -9 -3 -20 7 -26 23 -25 35 1 35 18 0 19
-2 9 -15z m77 -36 c-2 -14 -9 -19 -26 -19 -9 0 -12 49 -4 63 7 12 32 -26 30
-44z m-2525 -4 c-11 -13 -23 -21 -27 -17 -4 4 -2 -4 4 -16 7 -13 10 -26 7 -30
-3 -3 -6 -1 -6 5 0 6 -11 14 -25 17 -16 4 -25 13 -25 26 0 15 7 20 25 20 15 0
25 6 25 14 0 15 33 27 38 14 2 -4 -5 -19 -16 -33z m2848 36 c0 -6 -4 -13 -10
-16 -5 -3 -10 1 -10 9 0 9 5 16 10 16 6 0 10 -4 10 -9z m-2250 -17 c0 -2 -7
-4 -15 -4 -8 0 -15 4 -15 10 0 5 7 7 15 4 8 -4 15 -8 15 -10z m515 6 c-3 -5
-13 -10 -21 -10 -8 0 -14 5 -14 10 0 6 9 10 21 10 11 0 17 -4 14 -10z m440 0
c-3 -5 -10 -10 -16 -10 -5 0 -9 5 -9 10 0 6 7 10 16 10 8 0 12 -4 9 -10z
m-1865 -10 c0 -5 -5 -10 -11 -10 -5 0 -7 5 -4 10 3 6 8 10 11 10 2 0 4 -4 4
-10z m3588 -8 c2 -7 -2 -10 -12 -6 -9 3 -16 11 -16 16 0 13 23 5 28 -10z
m-2938 -13 c0 -5 -4 -8 -9 -5 -5 4 -4 -5 2 -18 6 -13 17 -21 24 -19 7 3 13 0
13 -6 0 -7 9 -9 25 -5 28 7 32 -6 15 -50 -6 -17 -6 -26 0 -26 6 0 10 5 10 11
0 6 6 9 13 6 20 -7 57 11 57 29 0 12 6 15 25 10 14 -4 25 -2 25 4 0 13 46 13
71 0 10 -6 19 -18 19 -27 0 -14 2 -14 19 1 16 15 23 16 43 5 13 -6 20 -8 15
-4 -12 14 22 43 44 38 11 -3 19 -2 18 3 -4 22 2 34 16 34 8 0 15 -8 15 -17 -1
-25 -24 -53 -43 -53 -10 0 -14 -5 -11 -15 4 -8 2 -15 -4 -15 -5 0 -13 -11 -16
-25 -6 -23 -26 -36 -26 -16 0 5 -7 12 -16 15 -14 5 -15 4 -5 -8 8 -9 8 -21 1
-40 -8 -22 -14 -25 -35 -20 -19 5 -25 3 -23 -7 2 -10 -12 -15 -56 -17 -51 -3
-66 1 -106 26 -27 17 -67 31 -96 35 -28 3 -72 16 -98 29 -43 20 -47 25 -42 50
4 18 -2 40 -15 63 l-21 35 61 -6 c43 -5 61 -3 61 5 0 6 7 11 15 11 8 0 15 -5
15 -11z m332 -15 c-4 -23 -32 -35 -32 -14 0 6 -9 10 -20 10 -13 0 -18 -5 -14
-15 4 -10 0 -15 -15 -15 -25 0 -27 13 -5 39 10 12 29 18 53 18 34 0 37 -2 33
-23z m738 19 c-1 -20 -16 -31 -30 -22 -13 8 -13 10 0 19 18 12 30 13 30 3z
m520 -2 c0 -12 -20 -25 -27 -18 -7 7 6 27 18 27 5 0 9 -4 9 -9z m235 0 c3 -5
1 -12 -5 -16 -5 -3 -10 1 -10 9 0 18 6 21 15 7z m-2435 -22 c0 -5 -4 -9 -10
-9 -5 0 -10 7 -10 16 0 8 5 12 10 9 6 -3 10 -10 10 -16z m1010 5 c0 -2 -11 -4
-25 -4 -14 0 -25 4 -25 9 0 4 11 6 25 3 14 -2 25 -6 25 -8z m771 -49 c18 -24
38 -46 46 -49 9 -4 11 -14 7 -31 -5 -19 -3 -25 7 -23 8 2 15 -7 17 -21 2 -15
0 -21 -7 -17 -6 4 -11 0 -11 -8 0 -8 5 -18 10 -21 17 -11 11 -24 -15 -31 -20
-5 -35 3 -75 39 -27 25 -70 53 -95 63 -48 20 -54 28 -29 38 11 4 14 13 10 31
-5 18 0 31 19 49 14 14 25 30 25 35 0 23 62 -14 91 -54z m1749 55 c0 -5 -4
-10 -10 -10 -5 0 -10 5 -10 10 0 6 5 10 10 10 6 0 10 -4 10 -10z m-3114 -35
c-8 -23 -25 -9 -19 16 4 13 9 17 16 10 5 -5 7 -17 3 -26z m1194 26 c0 -11 -31
-24 -39 -16 -3 3 1 10 9 15 19 12 30 12 30 1z m450 -1 c0 -5 -7 -10 -15 -10
-8 0 -15 5 -15 10 0 6 7 10 15 10 8 0 15 -4 15 -10z m220 -33 c0 -5 -10 -7
-22 -5 -15 2 -24 11 -26 27 -4 23 -4 23 22 5 14 -11 26 -23 26 -27z m488 27
c45 -7 56 -22 21 -31 -11 -3 -18 -11 -15 -18 3 -8 -3 -16 -12 -20 -12 -4 -13
-8 -4 -14 9 -5 9 -12 -2 -27 -11 -14 -26 -19 -64 -19 -55 0 -75 10 -52 26 13
9 13 10 0 8 -25 -3 -65 17 -51 25 6 4 18 3 25 -4 10 -7 15 -7 18 0 1 5 22 11
45 13 26 1 43 7 43 15 0 6 -6 12 -14 12 -7 0 -16 12 -19 26 -4 22 -2 25 17 20
11 -4 40 -9 64 -12z m-2878 -19 c0 -8 -7 -15 -15 -15 -9 0 -12 6 -9 15 4 8 10
15 15 15 5 0 9 -7 9 -15z m400 5 c0 -5 -5 -10 -11 -10 -5 0 -7 5 -4 10 3 6 8
10 11 10 2 0 4 -4 4 -10z m1370 0 c0 -5 -4 -10 -10 -10 -5 0 -10 5 -10 10 0 6
5 10 10 10 6 0 10 -4 10 -10z m698 -23 c5 -24 -15 -21 -21 4 -3 13 -1 19 6 16
7 -2 13 -11 15 -20z m482 15 c0 -11 -22 -32 -32 -32 -5 0 -4 9 2 20 11 20 30
28 30 12z m-2110 -14 c0 -21 -18 -43 -27 -34 -4 5 -3 11 4 13 7 2 9 11 6 19
-3 8 0 14 6 14 6 0 11 -6 11 -12z m464 1 c-3 -5 1 -12 10 -15 8 -3 12 -12 9
-20 -4 -10 5 -19 26 -27 17 -6 31 -14 31 -17 0 -3 -20 -12 -45 -19 -34 -10
-49 -10 -59 -2 -11 9 -15 9 -18 0 -6 -17 -28 -2 -28 18 0 10 6 13 16 9 12 -5
15 -2 10 10 -4 12 -1 14 14 9 15 -5 18 -3 14 9 -3 9 -10 16 -15 16 -5 0 -9 8
-9 19 0 13 7 19 25 19 13 0 22 -4 19 -9z m106 2 c0 -6 -4 -13 -10 -16 -5 -3
-10 1 -10 9 0 9 5 16 10 16 6 0 10 -4 10 -9z m1368 -2 c-2 -6 -8 -10 -13 -10
-5 0 -11 4 -13 10 -2 6 4 11 13 11 9 0 15 -5 13 -11z m227 -9 c3 -5 -3 -10
-15 -10 -12 0 -18 5 -15 10 3 6 10 10 15 10 5 0 12 -4 15 -10z m-2495 -30 c0
-5 -5 -10 -11 -10 -5 0 -7 5 -4 10 3 6 8 10 11 10 2 0 4 -4 4 -10z m2170 0 c0
-15 -27 -23 -47 -15 -16 7 -15 9 7 15 36 11 40 11 40 0z m255 -10 c3 -5 -1
-10 -9 -10 -8 0 -18 5 -21 10 -3 6 1 10 9 10 8 0 18 -4 21 -10z m-1410 -10 c3
-5 1 -10 -4 -10 -6 0 -11 5 -11 10 0 6 2 10 4 10 3 0 8 -4 11 -10z m185 3 c0
-5 -5 -15 -10 -23 -8 -12 -12 -11 -30 8 l-21 22 31 0 c16 0 30 -3 30 -7z m723
-110 c-1 -43 3 -65 13 -74 8 -6 14 -15 14 -19 0 -16 -54 -72 -105 -110 -29
-21 -59 -45 -67 -54 -15 -14 -18 -13 -32 8 -14 22 -14 30 0 83 8 33 38 95 69
144 30 47 59 98 65 115 l12 29 16 -30 c10 -20 16 -51 15 -92z m282 97 c3 -5 1
-10 -4 -10 -6 0 -11 5 -11 10 0 6 2 10 4 10 3 0 8 -4 11 -10z m-2255 -30 c0
-5 -5 -10 -11 -10 -5 0 -7 5 -4 10 3 6 8 10 11 10 2 0 4 -4 4 -10z m2420 0 c0
-5 -4 -10 -10 -10 -5 0 -10 5 -10 10 0 6 5 10 10 10 6 0 10 -4 10 -10z m-376
-68 c-4 -18 -10 -32 -15 -32 -10 0 -12 41 -3 65 11 27 25 1 18 -33z m-1404 28
c0 -5 -4 -10 -10 -10 -5 0 -10 5 -10 10 0 6 5 10 10 10 6 0 10 -4 10 -10z
m1170 -20 c0 -5 -4 -10 -10 -10 -5 0 -10 5 -10 10 0 6 5 10 10 10 6 0 10 -4
10 -10z m-750 -16 c0 -8 -5 -12 -10 -9 -6 4 -8 11 -5 16 9 14 15 11 15 -7z
m-450 -10 c0 -8 -5 -12 -10 -9 -6 4 -8 11 -5 16 9 14 15 11 15 -7z"/>
<path d="M2970 4360 c0 -5 5 -10 10 -10 6 0 10 5 10 10 0 6 -4 10 -10 10 -5 0
-10 -4 -10 -10z"/>
<path d="M1215 3680 c-3 -5 3 -10 15 -10 12 0 18 5 15 10 -3 6 -10 10 -15 10
-5 0 -12 -4 -15 -10z"/>
<path d="M2640 3450 c0 -5 4 -10 9 -10 6 0 13 5 16 10 3 6 -1 10 -9 10 -9 0
-16 -4 -16 -10z"/>
<path d="M1893 3100 c-10 -14 -18 -17 -40 -11 -20 6 -31 3 -40 -8 -10 -15 -12
-14 -18 1 -6 15 -8 15 -24 0 -10 -9 -26 -22 -37 -28 -26 -16 -13 -26 38 -29
23 -2 44 -8 46 -14 6 -17 82 -14 88 4 4 8 11 15 18 16 6 0 21 13 34 30 17 21
19 27 7 23 -9 -4 -25 2 -38 14 -22 21 -23 21 -34 2z"/>
<path d="M1676 3041 c-4 -7 -5 -15 -2 -18 9 -9 19 4 14 18 -4 11 -6 11 -12 0z"/>
<path d="M897 2935 c-4 -8 -2 -17 3 -20 6 -4 10 3 10 14 0 25 -6 27 -13 6z"/>
<path d="M4334 2191 c-20 -26 -20 -26 -1 -44 18 -18 19 -18 32 0 17 21 19 43
6 43 -5 0 -11 6 -13 13 -2 9 -10 5 -24 -12z"/>
<path d="M740 2170 c0 -5 5 -10 10 -10 6 0 10 5 10 10 0 6 -4 10 -10 10 -5 0
-10 -4 -10 -10z"/>
<path d="M629 2069 c-14 -14 -14 -19 -2 -44 l15 -27 21 21 c20 20 20 23 6 34
-9 7 -18 17 -20 22 -2 7 -11 4 -20 -6z"/>
</g>
</svg>
